{"glyphs":{"0":{"ha":958,"x_min":71,"x_max":886,"o":"m 478 951 l 479 951 q 780 792 653 951 q 886 460 886 648 q 764 109 886 261 q 478 -29 640 -29 q 178 127 307 -29 q 71 462 71 275 q 193 812 71 659 q 478 951 318 951 m 202 460 q 301 185 202 300 q 479 101 381 101 q 694 235 605 101 q 756 460 756 338 q 640 754 756 637 q 481 821 564 821 l 478 821 q 265 689 355 821 q 202 460 202 585 z "},"1":{"ha":484,"x_min":102,"x_max":336,"o":"m 336 932 l 336 1 l 336 0 l 207 0 l 206 1 l 206 803 l 102 803 l 102 804 l 102 932 l 336 932 z "},"2":{"ha":734,"x_min":66,"x_max":667,"o":"m 368 966 q 542 913 469 966 q 581 879 555 904 q 623 823 609 848 q 667 660 667 745 q 629 518 667 581 l 414 283 l 260 113 l 260 113 l 399 113 l 663 113 l 663 113 l 663 -18 l 663 -18 l 79 -18 l 78 -18 l 78 109 l 288 338 l 422 487 l 522 597 q 536 658 536 625 l 536 662 q 505 764 536 714 q 482 792 497 777 q 450 816 465 808 q 371 834 418 834 l 366 834 q 209 722 245 834 q 197 658 197 682 l 66 658 l 66 661 q 85 764 66 704 q 113 828 98 802 q 242 942 159 907 q 368 966 299 966 z "},"3":{"ha":773,"x_min":62,"x_max":695,"o":"m 387 956 l 388 956 q 570 891 489 956 q 614 846 597 868 q 640 805 630 825 q 671 684 671 745 l 671 676 q 637 549 671 612 q 610 509 627 530 q 574 472 600 496 q 612 439 585 465 q 652 387 640 408 q 695 237 695 315 l 695 231 q 646 71 695 148 q 614 31 632 52 q 576 -2 589 6 q 526 -33 551 -21 q 475 -54 507 -43 q 387 -68 427 -68 l 368 -68 q 259 -46 319 -68 q 195 -13 227 -33 q 153 22 176 1 q 118 62 130 44 q 90 109 99 90 q 62 229 62 170 l 62 234 l 62 235 l 192 235 l 193 234 q 235 126 193 175 q 259 103 251 109 q 298 80 281 87 q 378 63 338 63 q 514 117 456 63 q 564 234 564 169 q 524 340 564 292 q 375 406 466 406 l 308 406 l 308 406 l 308 536 l 308 536 l 383 536 l 395 536 q 435 543 408 536 q 465 555 451 548 q 496 578 477 562 q 540 680 540 623 q 494 783 540 739 q 388 824 448 824 q 275 777 323 824 q 249 741 258 758 q 235 675 235 712 l 235 674 l 104 674 l 104 675 l 104 680 q 169 855 104 777 q 203 889 193 882 q 253 922 228 909 q 387 956 317 956 z "},"4":{"ha":764,"x_min":16,"x_max":705,"o":"m 493 680 l 374 479 q 256 279 260 287 q 247 264 254 278 l 454 264 l 494 264 l 494 680 l 493 680 m 494 938 l 624 938 l 625 937 l 625 264 l 705 264 l 705 264 l 705 134 l 705 134 l 625 134 l 625 -10 l 625 -11 l 494 -11 l 494 -10 l 494 133 l 16 133 l 16 134 l 181 411 l 342 682 l 481 917 l 494 938 z "},"5":{"ha":839,"x_min":55,"x_max":765,"o":"m 669 938 l 670 937 l 670 808 l 669 807 l 381 807 l 336 642 l 337 642 q 388 645 364 645 l 399 645 q 562 606 481 645 q 625 568 592 592 q 653 543 637 559 q 690 503 683 514 q 719 461 709 479 q 765 288 765 379 q 692 77 765 174 q 655 35 682 62 q 604 -5 628 10 q 395 -68 507 -68 l 391 -68 q 187 -8 283 -68 q 138 29 165 5 q 104 65 111 55 q 68 117 79 97 q 55 142 55 140 q 174 198 165 195 q 302 80 213 116 q 393 63 347 63 q 555 121 484 63 q 585 152 575 140 q 633 287 633 214 l 633 290 q 580 431 633 366 q 551 459 561 452 q 393 514 481 514 q 263 478 325 514 l 139 411 l 224 726 q 273 912 273 910 l 281 938 l 669 938 z "},"6":{"ha":848,"x_min":65,"x_max":785,"o":"m 196 281 q 264 125 196 193 q 287 108 286 108 q 423 63 350 63 l 427 63 q 579 121 511 63 q 608 149 600 138 q 654 281 654 210 q 614 406 654 348 q 584 438 605 418 q 554 462 566 454 q 428 499 494 499 l 422 499 q 282 452 348 499 q 254 426 271 443 q 196 281 196 362 m 408 937 q 519 869 517 871 l 372 627 q 425 631 398 631 q 642 560 543 631 q 683 525 659 548 q 717 485 709 498 q 746 441 733 463 q 785 282 785 365 l 785 281 q 721 81 785 174 q 684 39 709 65 q 634 -3 653 9 q 593 -28 610 -19 q 547 -47 568 -40 q 432 -68 487 -68 l 418 -68 q 283 -39 353 -68 q 225 -9 256 -28 q 87 161 128 54 q 65 275 65 220 l 65 287 q 104 441 65 364 q 199 596 115 460 l 344 835 l 408 937 z "},"7":{"ha":662,"x_min":36,"x_max":627,"o":"m 39 939 l 626 939 l 627 938 l 627 826 q 591 762 625 823 l 411 437 l 234 118 l 151 -32 l 150 -32 l 36 32 l 184 298 l 322 548 l 467 807 l 39 807 l 39 808 l 39 938 l 39 939 z "},"8":{"ha":796,"x_min":67,"x_max":728,"o":"m 252 692 q 294 597 252 639 q 397 556 338 556 q 503 598 457 556 q 543 692 543 640 q 501 787 543 747 q 452 819 477 809 q 399 827 425 827 l 395 827 q 295 789 340 827 q 252 692 252 747 m 198 246 q 256 119 198 174 q 294 93 279 100 q 397 66 342 66 q 538 119 477 66 q 567 152 563 143 q 597 243 597 197 l 597 250 q 560 350 597 301 q 524 384 541 373 q 397 425 467 425 q 262 377 321 425 q 235 350 245 363 q 198 246 198 302 m 397 959 q 578 895 497 959 q 616 857 605 871 q 669 749 654 808 q 675 696 675 720 l 675 688 q 635 554 675 620 q 606 517 623 536 q 589 499 603 513 q 629 467 606 488 q 662 432 659 439 q 692 387 679 412 q 728 246 728 319 q 655 51 728 139 q 618 14 636 29 q 581 -12 597 -3 q 399 -64 496 -64 l 396 -64 q 199 -2 289 -64 q 157 33 179 12 q 125 70 136 56 q 95 122 104 98 q 67 241 67 182 l 67 251 q 105 391 67 321 q 144 446 119 416 q 179 479 170 472 q 206 499 195 492 q 174 535 182 522 q 120 692 120 607 q 188 867 120 789 q 222 899 214 894 q 264 926 245 917 q 397 959 328 959 z "},"9":{"ha":844,"x_min":62,"x_max":783,"o":"m 194 607 q 245 470 194 531 q 275 439 262 450 q 422 389 342 389 q 574 443 507 389 q 604 475 592 460 q 652 607 652 535 q 598 748 652 686 q 565 779 575 771 q 423 826 500 826 q 268 768 336 826 q 239 739 242 743 q 194 607 194 679 m 423 957 q 633 891 537 957 q 676 856 650 879 q 715 812 706 825 q 745 763 732 788 q 783 608 783 688 l 783 605 q 724 415 783 506 l 545 123 q 441 -47 445 -42 l 441 -47 l 330 20 l 330 21 q 374 92 330 22 l 477 261 q 428 258 450 258 l 418 258 q 253 299 334 258 q 199 333 228 312 q 161 367 183 345 q 119 420 133 397 q 89 475 100 448 q 62 602 62 541 l 62 613 q 106 774 62 693 q 143 828 120 799 q 181 867 157 846 q 292 933 233 911 q 423 957 355 957 z "},"\u0000":{"ha":694,"x_min":0,"x_max":0,"o":""}," ":{"ha":345,"x_min":0,"x_max":0,"o":""},"!":{"ha":482,"x_min":180,"x_max":353,"o":"m 181 993 l 352 993 l 353 992 l 332 208 l 332 207 l 201 207 l 201 208 l 180 992 l 181 993 m 267 171 q 336 136 308 171 q 352 88 352 112 l 352 83 q 326 23 352 50 q 287 2 306 6 q 271 0 277 0 l 262 0 q 216 16 240 0 q 184 60 193 33 q 181 83 181 73 l 181 88 q 207 147 181 120 q 267 171 233 171 z "},"\"":{"ha":649,"x_min":121,"x_max":476,"o":"m 252 1017 l 252 747 l 252 746 l 122 746 l 121 747 l 121 1017 l 252 1017 m 476 1017 l 476 747 l 475 746 l 346 746 l 345 747 l 345 1017 l 476 1017 z "},"#":{"ha":676,"x_min":24,"x_max":651,"o":"m 279 545 l 257 419 l 388 419 l 410 545 l 279 545 m 211 911 q 339 888 335 890 l 302 676 l 433 676 l 473 905 q 602 882 601 882 l 566 676 l 651 676 l 651 545 l 543 545 l 521 419 l 613 419 l 614 418 l 614 288 l 613 288 l 498 288 l 451 20 l 450 20 l 322 43 l 322 43 l 365 288 l 234 288 l 188 26 l 58 50 l 100 288 l 25 288 l 24 288 l 24 418 l 25 419 l 123 419 l 146 545 l 62 545 l 62 545 l 62 675 l 62 676 l 169 676 l 210 911 l 211 911 z "},"$":{"ha":775,"x_min":66,"x_max":704,"o":"m 317 1013 l 446 1013 l 447 1012 l 447 939 q 463 937 447 939 q 594 880 533 923 q 635 842 611 867 q 668 802 662 814 q 678 785 674 793 l 678 785 q 563 724 595 741 q 538 755 558 732 q 393 812 479 812 q 271 778 321 812 q 248 758 262 772 q 216 680 216 722 q 239 625 216 643 q 262 609 251 615 q 340 576 289 593 q 491 541 399 559 q 558 517 531 530 q 614 483 586 504 q 642 457 625 475 q 690 379 674 421 q 704 300 704 338 l 704 293 q 661 154 704 222 q 631 117 650 138 q 597 87 612 98 q 550 59 572 70 q 495 37 526 47 q 447 26 476 31 l 447 -47 l 446 -48 l 317 -48 l 316 -47 l 316 28 q 300 32 316 29 q 157 103 222 50 q 111 150 124 132 q 75 203 86 181 q 66 220 66 219 q 183 278 173 274 l 183 278 q 306 167 224 197 q 387 153 345 153 q 518 192 461 153 q 550 224 538 206 q 573 296 573 258 q 518 390 573 355 q 490 404 505 398 q 423 420 473 411 q 225 480 288 450 q 85 679 85 545 l 85 680 q 146 841 85 768 q 176 871 165 861 q 213 897 196 886 q 257 918 236 910 q 312 935 278 927 l 316 935 l 316 1012 l 317 1013 z "},"%":{"ha":1128,"x_min":63,"x_max":1066,"o":"m 202 773 q 233 718 202 741 q 279 704 254 704 q 345 737 319 704 q 356 774 356 755 q 317 835 356 812 q 280 843 298 843 l 278 843 q 217 815 243 843 q 202 773 202 797 m 279 983 q 433 922 366 983 q 464 882 456 898 q 495 774 495 831 q 438 632 495 694 q 400 600 415 609 q 283 564 344 564 l 275 564 q 164 596 218 564 q 127 625 147 606 q 97 661 106 646 q 63 768 63 714 l 63 779 q 96 886 63 832 q 125 921 105 900 q 174 956 155 947 q 279 983 224 983 m 846 412 l 852 412 q 981 370 920 412 q 1010 345 991 362 q 1051 279 1038 313 q 1066 206 1066 242 l 1066 200 q 1027 84 1066 140 q 1000 53 1021 73 q 935 11 969 24 q 850 -6 894 -6 q 705 47 769 -6 q 675 81 680 71 q 633 203 633 137 q 690 345 633 282 q 720 370 713 366 q 754 391 737 383 q 846 412 800 412 m 812 994 l 949 994 l 949 993 l 307 -9 l 306 -9 l 170 -9 l 170 -9 l 812 993 l 812 994 m 772 203 q 804 148 772 170 q 850 134 825 134 q 916 167 890 134 q 927 204 927 184 q 888 264 927 241 q 851 273 869 273 l 848 273 q 788 245 813 273 q 772 203 772 227 z "},"&":{"ha":885,"x_min":68,"x_max":826,"o":"m 349 775 q 363 727 349 747 q 418 637 385 688 q 427 624 426 625 q 513 681 470 648 q 549 713 528 693 q 576 764 576 743 l 576 770 q 522 848 576 828 q 464 861 492 861 l 463 861 q 374 828 414 861 q 353 802 355 810 q 349 775 349 795 m 199 216 q 277 101 199 132 q 338 92 300 92 q 572 181 454 92 q 386 448 467 329 q 310 393 351 427 q 260 349 294 380 l 248 334 q 208 275 218 300 q 199 216 199 250 m 463 992 q 597 958 530 992 q 633 935 616 948 q 707 770 707 871 q 688 684 707 720 q 499 515 646 600 q 666 275 576 403 l 672 268 l 733 329 l 826 237 q 749 160 764 173 l 810 76 l 810 75 q 709 0 806 71 q 705 -2 706 -2 l 649 75 q 338 -39 496 -39 q 222 -18 269 -39 q 87 114 127 22 q 68 212 68 163 l 68 222 q 80 307 68 262 q 101 354 90 334 q 138 408 115 378 q 221 490 174 451 q 299 549 267 527 l 313 557 q 239 679 264 633 q 218 772 218 723 l 218 780 q 315 948 218 881 q 463 992 385 992 z "},"'":{"ha":349,"x_min":94,"x_max":225,"o":"m 225 1017 l 225 746 l 224 745 l 95 745 l 94 746 l 94 1017 l 225 1017 z "},"(":{"ha":531,"x_min":90,"x_max":428,"o":"m 413 1041 l 426 1041 l 428 1039 l 428 912 l 426 910 l 410 910 q 263 742 330 910 q 221 420 221 614 q 310 54 221 203 q 408 -19 359 -19 l 426 -19 l 428 -21 l 428 -148 l 426 -150 l 409 -150 q 161 54 258 -150 q 90 423 90 218 q 182 878 90 703 q 413 1041 274 1041 z "},")":{"ha":531,"x_min":103,"x_max":441,"o":"m 118 1041 q 349 878 257 1041 q 441 423 441 703 q 370 54 441 218 q 122 -150 273 -150 l 105 -150 l 103 -148 l 103 -21 l 105 -19 l 123 -19 q 221 54 172 -19 q 310 420 310 203 q 268 742 310 614 q 121 910 201 910 l 105 910 l 103 912 l 103 1039 l 105 1041 l 118 1041 z "},"*":{"ha":726,"x_min":107,"x_max":614,"o":"m 296 1021 l 426 1021 l 427 1021 l 427 867 l 570 919 l 614 796 q 468 743 614 795 l 468 743 l 558 621 l 452 543 q 414 595 449 547 q 361 667 364 663 q 277 555 356 662 l 269 543 l 163 621 l 163 621 l 253 743 l 108 795 l 107 796 l 151 919 q 295 867 292 869 l 295 1021 l 296 1021 z "},"+":{"ha":563,"x_min":47,"x_max":529,"o":"m 223 281 l 47 281 l 47 412 l 223 412 l 223 586 l 224 587 l 353 587 l 354 586 l 354 412 l 528 412 l 529 411 l 529 281 l 528 281 l 354 281 l 354 105 l 223 105 l 223 281 z "},",":{"ha":406,"x_min":70,"x_max":275,"o":"m 189 166 q 259 128 232 166 q 275 65 275 104 q 149 -153 275 -41 q 104 -189 115 -184 l 70 -144 q 157 0 157 -63 q 112 42 126 13 q 102 81 102 60 q 140 151 102 123 q 189 166 162 166 z "},"-":{"ha":585,"x_min":52,"x_max":530,"o":"m 52 412 l 530 412 l 530 411 l 530 281 l 530 281 l 52 281 l 52 412 z "},".":{"ha":376,"x_min":102,"x_max":273,"o":"m 189 171 q 257 136 229 171 q 273 88 273 112 l 273 83 q 247 23 273 50 q 208 2 227 6 q 193 0 198 0 l 183 0 q 138 16 161 0 q 106 60 115 33 q 102 83 102 73 l 102 88 q 128 147 102 120 q 189 171 154 171 z "},"/":{"ha":485,"x_min":1,"x_max":469,"o":"m 339 932 l 469 932 l 469 931 l 132 -33 l 131 -34 l 1 -34 l 1 -33 l 338 931 l 339 932 z "},":":{"ha":400,"x_min":127,"x_max":298,"o":"m 210 650 l 215 650 q 273 625 246 650 q 298 567 298 598 l 298 562 q 269 500 298 528 q 215 479 243 479 l 210 479 q 150 505 177 479 q 127 562 127 532 l 127 568 q 150 623 127 597 q 210 650 177 650 m 213 171 q 281 136 254 171 q 298 88 298 112 l 298 83 q 271 23 298 50 q 233 2 252 6 q 217 0 222 0 l 208 0 q 162 16 186 0 q 130 60 139 33 q 127 83 127 73 l 127 88 q 153 147 127 120 q 213 171 178 171 z "},";":{"ha":388,"x_min":81,"x_max":286,"o":"m 197 650 l 203 650 q 261 625 234 650 q 286 567 286 598 l 286 562 q 258 500 286 528 q 203 479 231 479 l 197 479 q 136 508 163 479 q 115 564 115 534 q 138 624 115 597 q 197 650 165 650 m 200 166 q 270 128 243 166 q 286 65 286 104 q 160 -153 286 -41 q 115 -189 125 -184 l 81 -144 q 168 0 168 -63 q 123 42 137 13 q 113 81 113 60 q 151 151 113 123 q 200 166 173 166 z "},"<":{"ha":669,"x_min":79,"x_max":538,"o":"m 457 696 l 458 696 l 538 593 q 347 444 538 591 l 227 350 l 360 246 l 538 107 l 458 4 l 457 4 l 227 184 q 79 299 82 296 l 79 401 l 274 553 l 457 696 z "},"=":{"ha":569,"x_min":64,"x_max":505,"o":"m 64 529 l 504 529 l 505 528 l 505 399 l 504 398 l 64 398 l 64 529 m 64 267 l 504 267 l 505 267 l 505 137 l 504 136 l 64 136 l 64 267 z "},">":{"ha":669,"x_min":131,"x_max":590,"o":"m 395 553 l 590 401 l 590 299 q 442 184 587 296 l 212 4 l 211 4 l 131 107 l 309 246 l 441 350 l 321 444 q 131 593 131 591 l 211 696 l 212 696 l 395 553 z "},"?":{"ha":753,"x_min":90,"x_max":690,"o":"m 384 171 q 450 139 422 171 q 469 87 469 115 l 469 83 q 441 22 469 49 q 387 0 415 0 l 378 0 q 334 16 357 0 q 300 63 310 32 q 298 85 298 75 q 330 152 298 124 q 384 171 353 171 m 386 1025 l 395 1025 q 516 998 454 1025 q 571 964 543 985 q 603 936 586 953 q 641 888 629 909 q 690 722 690 811 q 644 564 690 642 q 613 521 632 543 q 573 481 591 495 q 494 424 549 462 q 465 399 481 414 q 452 382 456 389 q 449 364 449 372 l 449 208 l 448 207 l 319 207 l 318 208 l 317 362 q 404 519 317 454 q 478 573 425 536 q 526 622 507 595 q 556 694 548 654 q 559 722 559 711 q 512 842 559 789 q 390 895 460 895 q 271 844 323 895 q 221 722 221 791 l 221 699 l 90 699 l 90 728 q 124 863 90 794 q 156 912 136 886 q 186 945 165 924 q 220 972 205 962 q 273 1002 245 989 q 386 1025 330 1025 z "},"@":{"ha":1481,"x_min":109,"x_max":1394,"o":"m 596 342 l 596 338 q 621 247 596 289 q 643 218 626 236 q 712 189 673 189 l 713 189 q 806 238 762 189 q 853 372 853 296 q 820 477 853 431 q 737 521 785 521 l 736 521 q 649 479 691 521 q 608 410 621 448 q 596 342 596 374 m 744 994 l 759 994 q 1008 950 885 994 q 1280 750 1177 886 q 1322 683 1304 717 q 1394 392 1394 550 q 1370 233 1394 323 q 1343 167 1358 196 q 1303 105 1327 137 q 1259 62 1278 77 q 1103 4 1184 4 q 1019 18 1063 4 q 910 96 949 41 q 890 130 897 115 l 888 134 q 852 104 867 114 q 712 58 785 58 q 571 106 636 58 q 527 151 544 129 q 502 190 510 174 q 465 340 465 260 q 520 527 465 440 q 611 616 558 583 q 737 652 672 652 q 883 600 817 652 q 919 564 905 581 q 937 538 928 552 l 938 538 q 955 583 945 559 l 956 583 l 1077 536 l 1077 535 q 1040 434 1054 477 q 1000 242 1000 316 q 1032 156 1000 179 q 1076 138 1046 144 q 1103 136 1093 136 l 1103 136 q 1191 176 1146 136 q 1224 224 1213 201 q 1244 272 1238 249 q 1256 326 1251 294 q 1263 391 1263 360 l 1263 393 q 1170 677 1263 555 q 1086 760 1129 728 q 1027 798 1055 783 q 751 863 905 863 l 751 863 q 463 774 595 863 q 407 730 437 757 q 365 688 378 703 q 318 625 332 648 q 239 353 239 499 q 320 76 239 205 q 359 22 335 52 q 403 -23 372 7 q 469 -76 444 -60 q 592 -136 526 -114 q 748 -161 669 -161 l 753 -161 q 1025 -81 897 -161 l 1096 -192 q 1028 -229 1062 -213 q 950 -261 999 -244 q 760 -292 851 -292 l 741 -292 q 537 -256 644 -292 q 427 -204 476 -233 q 347 -149 387 -180 q 288 -94 331 -137 q 218 -8 241 -43 q 176 64 195 27 q 140 153 157 102 q 109 346 109 253 l 109 360 q 153 588 109 473 q 193 671 170 631 q 246 750 212 706 q 298 808 262 771 l 308 817 q 374 872 351 857 q 447 918 412 899 q 539 958 487 940 q 744 994 644 994 z "},"A":{"ha":971,"x_min":24,"x_max":953,"o":"m 304 345 l 668 345 l 487 793 q 412 610 485 793 l 304 345 m 549 993 q 608 847 551 993 l 953 1 l 951 0 l 810 0 q 790 45 807 0 l 722 214 l 250 214 l 164 0 l 24 0 l 24 1 l 367 848 l 427 993 l 549 993 z "},"B":{"ha":841,"x_min":117,"x_max":781,"o":"m 247 451 l 247 132 l 473 132 q 637 217 589 132 q 650 289 650 245 l 650 313 q 559 434 650 401 q 452 453 515 453 l 249 453 l 247 451 m 248 863 l 248 583 l 437 583 q 606 668 557 583 q 618 715 618 692 l 618 745 q 513 853 618 820 q 427 863 483 863 l 248 863 m 119 993 l 447 993 q 699 886 605 993 q 749 737 749 823 l 749 723 q 662 530 749 610 l 662 529 q 716 486 682 519 q 781 324 781 414 l 781 275 q 655 49 781 136 q 576 15 591 15 q 454 0 534 0 l 119 0 l 117 2 l 117 991 l 119 993 z "},"C":{"ha":989,"x_min":66,"x_max":944,"o":"m 534 993 l 536 993 q 871 844 728 993 q 943 743 922 785 q 829 680 938 739 q 774 757 810 713 q 536 863 669 863 q 296 755 401 863 q 196 497 196 642 q 324 210 196 329 q 530 132 421 132 l 544 132 q 767 230 663 132 q 829 315 811 279 l 944 254 l 944 252 q 883 161 921 209 q 536 0 735 0 q 190 159 338 0 q 66 494 66 309 l 66 498 q 192 836 66 686 q 534 993 338 993 z "},"D":{"ha":937,"x_min":117,"x_max":874,"o":"m 119 992 l 377 992 q 702 871 556 992 q 774 795 758 819 q 874 500 874 659 l 874 492 q 724 140 874 294 q 562 35 641 65 q 383 0 471 0 l 119 0 l 117 2 l 117 990 l 119 992 m 248 860 l 248 131 l 367 131 q 655 258 541 131 q 744 496 744 365 q 653 735 744 629 q 570 806 600 791 q 486 845 543 825 q 353 861 435 861 l 249 861 l 248 860 z "},"E":{"ha":724,"x_min":117,"x_max":651,"o":"m 117 993 l 650 993 l 651 992 l 651 862 l 248 862 l 248 562 l 567 562 l 568 561 l 568 432 l 567 431 l 248 431 l 248 131 l 651 131 l 651 1 l 650 0 l 117 0 l 117 1 l 117 992 l 117 993 z "},"F":{"ha":684,"x_min":117,"x_max":651,"o":"m 117 993 l 650 993 l 651 992 l 651 863 l 650 862 l 248 862 l 248 562 l 575 562 l 575 431 l 248 431 l 248 1 l 247 0 l 117 0 l 117 1 l 117 992 l 117 993 z "},"G":{"ha":1093,"x_min":62,"x_max":1019,"o":"m 538 993 l 540 993 q 873 850 729 993 q 951 747 925 795 l 959 732 q 842 672 861 680 q 791 746 825 707 q 728 802 749 790 q 540 863 640 863 q 271 729 383 863 q 192 497 192 622 q 314 218 192 336 q 540 132 414 132 q 791 247 684 132 q 874 405 855 322 l 625 405 l 623 407 l 623 534 l 624 534 l 624 536 l 895 536 l 1017 536 l 1019 534 q 1006 398 1015 431 q 938 224 984 293 q 696 28 852 87 q 538 0 616 0 q 220 126 363 0 q 62 496 62 283 l 62 498 q 219 866 62 709 q 267 904 257 899 q 538 993 390 993 z "},"H":{"ha":925,"x_min":117,"x_max":808,"o":"m 119 993 l 245 993 l 247 991 l 247 562 l 677 562 l 677 991 l 679 993 l 806 993 l 808 991 l 808 2 l 806 0 l 680 0 l 678 2 l 678 431 l 247 431 l 247 2 l 245 0 l 119 0 l 117 2 l 117 991 l 119 993 z "},"I":{"ha":364,"x_min":117,"x_max":248,"o":"m 117 993 l 247 993 l 248 992 l 248 1 l 247 0 l 117 0 l 117 1 l 117 992 l 117 993 z "},"J":{"ha":770,"x_min":5,"x_max":656,"o":"m 526 993 l 656 993 l 656 296 q 618 157 656 227 q 586 109 606 134 q 541 64 559 77 q 486 29 512 42 q 365 0 423 0 l 296 0 q 165 35 232 0 q 114 69 141 47 q 84 98 101 80 q 47 149 58 129 q 25 193 38 162 q 5 295 5 246 l 5 347 l 5 348 l 135 348 l 136 347 l 136 300 q 181 186 136 239 q 210 161 201 166 q 301 131 253 131 l 361 131 q 458 167 412 131 q 490 199 479 184 q 525 302 525 247 l 525 992 l 526 993 z "},"K":{"ha":900,"x_min":117,"x_max":867,"o":"m 119 993 l 245 993 l 247 991 l 247 481 q 688 990 259 494 l 691 993 l 861 993 l 863 991 l 450 515 l 867 2 l 867 1 l 694 1 l 363 414 l 247 279 l 247 2 l 245 0 l 119 0 l 117 2 l 117 991 l 119 993 z "},"L":{"ha":691,"x_min":117,"x_max":679,"o":"m 117 993 l 247 993 l 248 992 l 248 131 l 678 131 l 679 130 l 679 1 l 678 0 l 117 0 l 117 1 l 117 992 l 117 993 z "},"M":{"ha":1275,"x_min":117,"x_max":1158,"o":"m 119 993 l 277 993 q 454 600 281 989 l 637 193 l 638 193 l 997 993 l 1156 993 l 1158 991 l 1158 2 l 1156 0 l 1021 0 l 1020 2 l 1020 725 l 1019 725 l 696 3 l 693 1 l 582 1 q 562 44 580 1 l 256 725 l 255 725 l 255 2 l 254 0 l 119 0 l 117 2 l 117 991 l 119 993 z "},"N":{"ha":1028,"x_min":117,"x_max":911,"o":"m 119 993 l 260 993 l 736 283 l 779 218 l 780 218 l 780 991 l 782 993 l 909 993 l 911 991 l 911 2 l 909 0 l 768 0 q 498 404 732 52 l 247 776 l 247 2 l 245 0 l 119 0 l 117 2 l 117 991 l 119 993 z "},"O":{"ha":1083,"x_min":67,"x_max":1022,"o":"m 543 993 l 545 993 q 890 839 742 993 q 1022 496 1022 688 q 867 130 1022 286 q 545 0 722 0 q 225 127 368 0 q 144 227 162 192 q 67 496 67 351 l 67 498 q 224 866 67 709 l 270 903 q 543 993 397 993 m 197 497 q 319 218 197 336 q 545 132 420 132 q 820 275 708 132 q 890 491 890 378 l 890 500 q 793 751 890 639 q 545 863 685 863 q 277 729 389 863 q 197 497 197 622 z "},"P":{"ha":832,"x_min":117,"x_max":791,"o":"m 119 993 l 446 993 q 713 875 603 993 q 791 666 791 780 q 665 413 791 518 q 444 339 567 339 l 247 339 l 247 2 l 245 0 l 119 0 l 117 2 l 117 991 l 119 993 m 247 861 l 247 471 l 452 471 q 620 551 549 471 q 659 662 659 606 l 659 671 q 574 823 659 760 q 427 863 521 863 l 249 863 l 247 861 z "},"Q":{"ha":1067,"x_min":67,"x_max":1006,"o":"m 195 508 q 314 235 195 351 q 534 151 412 151 q 708 201 625 151 l 708 201 l 631 277 l 720 369 l 802 290 q 872 502 872 389 l 872 511 q 778 755 872 647 q 534 865 671 865 q 272 735 382 865 q 195 508 195 630 m 533 993 l 534 993 q 872 842 727 993 q 1001 507 1001 694 q 895 200 1001 338 l 1006 92 l 1006 91 l 918 0 l 803 111 q 534 22 677 22 q 222 146 361 22 q 142 244 160 210 q 67 507 67 366 l 67 509 q 221 869 67 715 l 265 905 q 533 993 389 993 z "},"R":{"ha":823,"x_min":117,"x_max":791,"o":"m 119 993 l 446 993 q 713 875 603 993 q 791 666 791 780 q 679 425 791 526 q 573 362 618 376 q 706 132 573 359 l 782 2 l 781 1 l 627 1 q 589 66 624 1 q 435 339 446 318 l 247 339 l 247 2 l 245 0 l 119 0 l 117 2 l 117 991 l 119 993 m 247 861 l 247 471 l 452 471 q 620 551 549 471 q 659 662 659 606 l 659 671 q 574 823 659 760 q 427 863 521 863 l 249 863 l 247 861 z "},"S":{"ha":764,"x_min":48,"x_max":714,"o":"m 386 1004 l 397 1004 q 549 967 475 1004 q 596 937 573 954 q 633 906 608 929 q 671 860 659 878 q 689 830 681 845 l 571 772 q 545 807 566 784 q 391 873 483 873 q 243 820 300 873 q 217 783 222 797 q 201 719 201 752 l 201 714 q 235 642 201 667 q 265 622 251 629 q 370 583 300 603 q 494 553 421 568 q 562 528 534 541 q 616 494 588 515 q 661 449 642 473 q 714 288 714 376 l 714 285 q 662 120 714 198 q 630 81 653 106 q 578 41 599 53 q 531 16 557 27 q 384 -14 460 -14 q 169 56 267 -14 q 132 87 151 69 q 94 129 105 114 q 62 179 73 157 q 48 207 50 202 l 167 262 q 197 212 178 237 q 224 181 205 199 q 267 149 250 157 q 382 118 321 118 l 387 118 q 502 148 447 118 q 533 171 517 157 q 560 204 551 189 q 583 287 583 244 q 525 398 583 356 q 494 414 508 409 q 420 435 471 425 q 213 501 278 467 q 69 717 69 572 q 132 892 69 813 q 176 935 153 916 q 224 966 203 956 q 280 989 248 979 q 386 1004 333 1004 z "},"T":{"ha":680,"x_min":10,"x_max":669,"o":"m 11 993 l 669 993 l 669 992 l 669 863 l 669 862 l 406 862 l 406 1 l 405 0 l 275 0 l 274 1 l 274 862 l 11 862 l 10 863 l 10 992 l 11 993 z "},"U":{"ha":1007,"x_min":115,"x_max":892,"o":"m 117 993 l 244 993 l 245 991 l 245 387 q 283 225 245 277 q 397 139 317 166 q 455 132 427 132 l 552 132 q 732 237 668 132 q 761 368 761 293 l 761 991 l 763 993 l 890 993 l 892 991 l 892 402 q 871 231 892 284 q 736 53 830 114 q 536 0 654 0 l 471 0 q 222 93 317 0 q 159 176 181 134 q 115 361 115 262 l 115 991 l 117 993 z "},"V":{"ha":985,"x_min":23,"x_max":962,"o":"m 23 993 l 170 993 q 232 842 172 991 l 492 200 l 493 200 l 810 981 q 816 993 814 993 l 961 993 l 962 992 l 962 992 l 561 20 q 552 0 555 1 l 434 0 q 420 29 431 1 q 123 751 138 709 q 23 992 115 764 l 23 993 z "},"W":{"ha":1400,"x_min":41,"x_max":1358,"o":"m 182 993 q 196 949 186 993 q 373 315 208 913 l 391 252 l 393 252 l 636 941 q 656 993 653 990 l 745 993 q 762 948 747 993 l 1008 252 l 1009 252 l 1215 992 l 1217 993 l 1357 993 l 1358 992 l 1358 992 l 1083 31 q 1074 0 1076 0 l 960 0 q 879 227 956 4 q 701 729 860 276 q 677 663 696 722 l 441 0 l 327 0 q 309 60 325 0 l 41 992 l 42 993 l 182 993 z "},"X":{"ha":996,"x_min":33,"x_max":963,"o":"m 222 993 l 497 609 q 772 992 524 643 l 773 993 l 940 993 l 940 991 l 591 513 l 963 2 l 963 0 l 797 0 q 576 307 791 7 q 499 416 501 412 l 498 416 l 199 0 l 35 0 l 33 2 l 393 496 l 406 512 l 56 992 l 56 993 l 222 993 z "},"Y":{"ha":922,"x_min":20,"x_max":905,"o":"m 20 993 l 186 993 q 323 803 194 985 l 463 609 q 739 993 724 976 l 905 993 l 905 992 l 532 479 l 532 2 l 530 0 l 395 0 l 393 2 l 393 477 q 349 541 393 481 l 20 992 l 20 993 z "},"Z":{"ha":872,"x_min":40,"x_max":843,"o":"m 109 993 l 843 993 l 843 991 l 281 132 l 840 132 l 841 130 l 841 2 l 840 0 l 40 0 l 40 2 l 602 863 l 109 863 l 108 864 l 108 991 l 109 993 z "},"[":{"ha":561,"x_min":129,"x_max":412,"o":"m 130 1027 l 411 1027 l 412 1027 l 412 897 l 411 897 l 260 897 l 260 15 l 411 15 l 412 14 l 412 -115 l 411 -116 l 130 -116 l 129 -115 l 129 1027 l 130 1027 z "},"\\":{"ha":485,"x_min":1,"x_max":469,"o":"m 132 931 l 469 -33 l 469 -34 l 339 -34 l 338 -33 l 1 931 l 1 932 l 131 932 l 132 931 z "},"]":{"ha":561,"x_min":149,"x_max":432,"o":"m 432 1027 l 432 -115 l 431 -116 l 150 -116 l 149 -115 l 149 14 l 150 15 l 301 15 l 301 897 l 150 897 l 149 897 l 149 1027 l 150 1027 l 431 1027 l 432 1027 z "},"^":{"ha":684,"x_min":46,"x_max":637,"o":"m 291 949 l 392 949 q 422 903 395 947 q 551 705 440 876 l 637 571 l 528 500 l 527 500 l 407 686 l 342 787 l 165 513 l 156 500 q 46 571 50 568 l 224 846 q 291 949 289 947 z "},"_":{"ha":739,"x_min":47,"x_max":692,"o":"m 47 5 l 690 5 l 692 4 l 692 -125 l 690 -126 l 47 -126 l 47 5 z "},"`":{"ha":656,"x_min":164,"x_max":492,"o":"m 233 1378 l 492 1219 l 492 1218 l 425 1108 l 424 1107 l 164 1267 l 233 1378 z "},"a":{"ha":821,"x_min":62,"x_max":720,"o":"m 394 660 q 588 574 507 660 l 588 648 l 590 650 l 718 650 l 720 648 l 720 1 l 718 0 l 590 0 l 588 1 l 588 67 q 393 -16 512 -16 l 392 -16 q 140 104 243 -16 q 62 321 62 201 l 62 322 q 178 580 62 471 q 394 660 273 660 m 193 322 q 286 146 193 215 q 383 115 337 115 l 398 115 q 524 168 463 115 q 588 321 588 233 l 588 322 q 496 497 588 431 q 395 528 445 528 l 385 528 q 237 453 303 528 q 193 322 193 391 z "},"b":{"ha":825,"x_min":104,"x_max":761,"o":"m 235 323 l 235 319 q 275 197 235 253 q 300 168 283 184 l 312 157 q 349 134 334 141 q 431 115 391 115 q 575 178 514 115 q 610 231 598 205 q 629 320 629 274 l 629 323 q 578 461 629 399 q 429 529 517 529 q 345 507 390 529 q 304 479 324 497 q 280 454 285 460 q 235 323 235 396 m 104 993 l 234 993 l 235 992 l 235 573 l 235 573 q 263 601 245 587 q 432 660 337 660 l 433 660 q 634 589 543 660 q 670 555 646 579 q 737 448 717 502 q 761 321 761 387 q 719 157 761 235 q 681 100 705 131 q 638 58 654 71 q 603 33 619 43 q 435 -16 523 -16 l 427 -16 q 339 -2 391 -16 q 293 19 313 7 q 257 45 277 28 q 235 68 246 56 l 235 0 l 104 0 l 104 992 l 104 993 z "},"c":{"ha":707,"x_min":61,"x_max":663,"o":"m 389 660 l 391 660 q 581 597 492 660 q 617 566 597 585 q 650 527 642 540 q 661 512 661 513 l 552 440 l 551 440 q 525 472 544 452 q 389 529 465 529 q 258 476 317 529 q 231 445 236 454 q 192 321 192 389 q 239 188 192 248 q 270 157 254 170 q 390 115 324 115 q 501 151 450 115 q 533 179 513 159 q 553 205 545 193 l 553 205 l 663 134 q 631 93 651 115 q 599 61 608 68 q 560 33 576 43 q 393 -16 479 -16 l 387 -16 q 210 39 294 -16 q 180 61 193 50 q 142 99 155 84 q 104 155 115 132 q 79 212 91 176 q 61 316 61 267 l 61 327 q 98 479 61 403 q 125 523 110 500 q 159 564 136 538 q 206 603 186 589 q 389 660 291 660 z "},"d":{"ha":825,"x_min":65,"x_max":722,"o":"m 591 323 q 546 454 591 396 q 522 479 541 460 q 481 507 502 497 q 397 529 436 529 q 248 461 309 529 q 197 323 197 399 l 197 320 q 216 231 197 274 q 251 178 228 205 q 395 115 312 115 q 477 134 435 115 q 514 157 492 141 l 526 168 q 551 197 543 184 q 591 319 591 253 l 591 323 m 722 992 l 722 0 l 591 0 l 591 68 q 569 45 580 56 q 533 19 549 28 q 487 -2 513 7 q 399 -16 435 -16 l 391 -16 q 223 33 303 -16 q 188 58 207 43 q 145 100 172 71 q 107 157 121 131 q 65 321 65 235 q 89 448 65 387 q 156 555 109 502 q 192 589 180 579 q 393 660 283 660 l 394 660 q 563 601 489 660 q 591 573 581 587 l 591 573 l 591 992 l 592 993 l 722 993 l 722 992 z "},"e":{"ha":723,"x_min":45,"x_max":668,"o":"m 192 406 l 521 406 l 521 406 q 468 485 509 441 q 355 529 416 529 q 203 431 262 529 l 192 406 m 347 660 l 366 660 q 557 581 465 660 q 618 505 602 536 q 668 321 668 417 l 668 301 q 665 282 668 282 l 180 282 q 231 174 195 210 q 356 115 286 115 q 504 203 444 115 q 517 227 515 226 q 635 172 634 174 q 593 101 626 149 q 357 -16 493 -16 l 355 -16 q 115 108 215 -16 q 45 320 45 205 l 45 323 q 167 591 45 481 q 347 660 256 660 z "},"f":{"ha":440,"x_min":18,"x_max":460,"o":"m 420 993 l 459 993 l 460 992 l 460 862 l 459 861 l 425 861 q 299 780 338 861 q 275 650 275 730 l 459 650 l 460 649 l 460 519 l 459 519 l 275 519 l 275 1 l 275 0 l 144 0 l 144 519 l 19 519 l 18 519 l 18 649 l 19 650 l 144 650 l 144 652 q 242 922 144 829 q 317 972 279 956 q 420 993 369 993 z "},"g":{"ha":795,"x_min":65,"x_max":716,"o":"m 218 410 q 261 330 218 365 q 364 295 307 295 l 367 295 q 461 323 418 295 q 509 384 496 347 q 513 410 513 397 q 470 490 513 455 q 366 524 425 524 q 262 491 308 524 q 218 410 218 456 m 196 -66 l 196 -68 q 240 -127 196 -99 q 387 -161 300 -161 l 394 -161 q 530 -130 471 -161 q 559 -108 544 -122 q 585 -61 585 -83 q 540 -9 585 -31 q 501 3 525 -3 q 431 10 461 10 l 355 9 q 260 16 304 9 q 233 -1 248 9 q 196 -66 196 -31 m 633 659 l 659 659 l 659 659 l 659 528 l 659 528 l 629 528 q 612 524 620 528 q 644 410 644 471 q 599 275 644 337 q 568 241 591 264 q 481 186 526 203 q 366 164 425 164 q 244 189 303 164 q 231 170 231 178 l 231 170 q 279 145 231 153 q 365 140 313 140 l 422 141 q 633 89 555 141 q 665 61 645 81 q 693 24 684 41 q 716 -61 716 -18 q 664 -189 716 -128 q 629 -220 641 -213 q 586 -248 605 -238 q 547 -266 570 -257 q 498 -281 526 -273 q 400 -292 446 -292 l 380 -292 q 227 -266 302 -292 q 172 -239 196 -254 q 134 -212 155 -229 q 105 -181 109 -188 q 85 -149 91 -162 q 65 -72 65 -109 l 65 -61 q 76 -5 65 -37 q 97 36 84 16 q 123 67 105 48 l 136 79 q 116 142 116 109 l 116 147 q 153 251 116 192 q 120 294 127 279 q 102 330 113 304 q 87 406 87 370 l 87 414 q 126 536 87 475 q 151 566 136 550 q 184 597 175 591 q 236 627 208 614 q 362 655 298 655 l 370 655 q 517 616 446 655 q 543 637 532 631 q 633 659 583 659 z "},"h":{"ha":783,"x_min":104,"x_max":682,"o":"m 104 993 l 235 993 l 235 608 l 235 608 q 326 643 270 627 q 399 650 355 650 l 405 650 q 656 517 580 650 q 682 395 682 465 l 682 2 l 681 0 l 553 0 l 552 2 l 552 396 q 482 506 552 479 q 408 519 453 519 l 397 519 q 279 493 314 519 q 235 393 235 466 l 235 0 l 104 0 l 104 993 z "},"i":{"ha":351,"x_min":90,"x_max":261,"o":"m 241 650 l 241 1 l 241 0 l 111 0 l 110 1 l 110 650 l 241 650 m 173 993 l 178 993 q 235 970 208 993 q 261 909 261 943 l 261 905 q 238 848 261 875 q 178 822 211 822 l 174 822 q 117 846 142 822 q 98 872 102 861 q 90 905 90 889 l 90 910 q 115 968 90 941 l 125 977 q 173 993 149 993 z "},"j":{"ha":370,"x_min":-29,"x_max":279,"o":"m 191 993 l 197 993 q 256 966 229 993 q 277 924 274 944 q 279 912 279 919 l 279 903 q 262 856 279 880 q 243 838 249 840 q 196 822 220 822 l 191 822 q 139 842 163 822 q 109 907 109 869 q 145 978 109 950 q 191 993 169 993 m 128 650 l 258 650 l 259 650 l 259 75 q 237 -94 259 -27 q 149 -233 208 -182 q 115 -257 130 -249 q -14 -292 56 -292 l -29 -292 l -29 -161 q 100 -83 62 -161 q 128 60 128 -24 l 128 650 z "},"k":{"ha":728,"x_min":104,"x_max":701,"o":"m 106 993 l 233 993 l 235 991 l 235 387 l 235 387 l 513 650 l 701 650 l 701 649 l 401 363 l 688 1 l 688 0 l 524 0 q 307 273 506 19 l 307 273 q 235 204 247 218 l 235 2 l 233 0 l 106 0 l 104 2 l 104 991 l 106 993 z "},"l":{"ha":338,"x_min":104,"x_max":235,"o":"m 104 993 l 234 993 l 235 992 l 235 1 l 234 0 l 104 0 l 104 1 l 104 992 l 104 993 z "},"m":{"ha":1230,"x_min":104,"x_max":1129,"o":"m 399 650 l 405 650 q 617 570 536 650 q 830 650 694 650 l 851 650 q 1105 515 1030 650 q 1129 410 1129 462 l 1129 2 l 1128 0 l 1000 0 l 999 2 l 999 409 q 918 510 999 482 q 854 519 892 519 l 827 519 q 690 448 722 519 q 682 406 682 429 l 682 2 l 681 0 l 553 0 l 552 2 l 552 394 q 505 493 552 467 q 408 519 469 519 l 397 519 q 279 493 314 519 q 235 393 235 466 l 235 2 l 233 0 l 106 0 l 104 2 l 104 644 l 106 646 l 233 646 l 235 644 l 235 608 l 235 608 q 326 643 270 627 q 399 650 355 650 z "},"n":{"ha":783,"x_min":104,"x_max":682,"o":"m 399 650 l 405 650 q 656 517 580 650 q 682 395 682 465 l 682 2 l 681 0 l 553 0 l 552 2 l 552 396 q 482 506 552 479 q 408 519 453 519 l 397 519 q 279 493 314 519 q 235 393 235 466 l 235 2 l 233 0 l 106 0 l 104 2 l 104 644 l 106 646 l 233 646 l 235 644 l 235 608 l 235 608 q 326 643 270 627 q 399 650 355 650 z "},"o":{"ha":779,"x_min":61,"x_max":718,"o":"m 192 321 q 240 186 192 247 q 273 155 261 163 q 389 115 326 115 q 526 173 467 115 q 559 216 550 198 q 587 320 587 267 l 587 322 q 534 463 587 400 q 503 490 511 487 q 481 505 491 500 q 389 529 437 529 q 258 475 317 529 q 231 444 237 454 q 192 321 192 389 m 389 660 q 591 589 500 660 q 628 555 604 579 q 694 448 675 503 q 718 321 718 387 q 677 157 718 235 q 638 100 663 131 q 595 58 612 70 q 561 33 577 43 q 393 -16 480 -16 l 387 -16 q 210 38 294 -16 q 180 61 193 50 q 142 99 154 83 q 116 134 128 115 q 93 176 102 156 q 61 317 61 247 l 61 327 q 99 479 61 403 q 125 522 110 500 q 159 564 136 538 q 207 603 193 594 q 389 660 290 660 z "},"p":{"ha":825,"x_min":104,"x_max":760,"o":"m 235 334 l 235 307 q 245 252 235 288 q 262 212 253 230 q 292 176 273 197 q 321 150 313 155 q 349 132 337 139 q 426 114 392 114 l 435 114 q 549 155 495 114 q 576 180 558 161 q 620 258 608 218 q 629 321 629 290 q 578 460 629 399 q 552 486 557 483 q 432 528 498 528 l 427 528 q 348 509 391 528 q 301 477 327 500 q 271 442 277 452 q 255 414 261 427 q 241 380 249 401 q 235 334 235 349 m 426 659 q 602 611 524 659 q 653 572 623 599 q 685 537 678 547 q 714 496 701 516 q 760 320 760 414 q 691 113 760 208 q 656 73 682 100 l 644 62 q 431 -17 549 -17 q 277 32 346 -17 q 241 62 264 41 l 235 69 l 235 -292 l 104 -292 l 104 -292 l 104 646 l 104 647 l 235 647 l 235 576 q 265 605 259 602 q 300 629 286 621 q 342 646 321 640 q 397 658 358 651 q 426 659 409 659 z "},"q":{"ha":825,"x_min":65,"x_max":722,"o":"m 591 334 q 584 380 591 349 q 570 414 576 401 q 554 442 564 427 q 524 477 549 452 q 477 509 498 500 q 399 528 435 528 l 393 528 q 273 486 328 528 q 247 460 269 483 q 196 321 196 399 q 205 258 196 290 q 250 180 217 218 q 277 155 267 161 q 391 114 330 114 l 399 114 q 476 132 433 114 q 505 150 488 139 q 534 176 513 155 q 563 212 553 197 q 581 252 572 230 q 591 307 591 288 l 591 334 m 399 659 q 429 658 416 659 q 483 646 467 651 q 525 629 504 640 q 560 605 540 621 q 591 576 566 602 l 591 647 l 721 647 l 722 646 l 722 -292 l 721 -292 l 591 -292 l 591 69 l 584 62 q 549 32 562 41 q 394 -17 479 -17 q 182 62 277 -17 l 170 73 q 134 113 143 100 q 65 320 65 208 q 111 496 65 414 q 140 537 124 516 q 172 572 147 547 q 223 611 202 599 q 399 659 301 659 z "},"r":{"ha":567,"x_min":104,"x_max":543,"o":"m 387 654 l 404 654 q 543 614 471 654 l 543 614 q 512 479 515 485 q 397 522 447 522 l 386 522 q 271 473 321 522 q 234 301 234 428 l 234 3 l 233 1 l 106 1 l 104 3 l 104 640 l 106 641 l 233 641 l 234 640 l 234 591 q 387 654 309 654 z "},"s":{"ha":667,"x_min":55,"x_max":610,"o":"m 338 687 q 549 610 463 687 q 577 580 569 591 l 585 567 q 549 544 584 565 q 475 497 514 523 q 450 521 463 512 q 340 555 405 555 l 337 555 q 223 522 266 555 q 199 477 199 501 q 212 454 199 463 q 262 431 225 444 q 422 395 314 414 q 483 376 458 387 q 530 350 507 366 q 561 323 541 342 q 610 201 610 269 l 610 199 q 559 69 610 130 q 528 41 537 47 q 483 15 500 22 q 336 -17 414 -17 l 331 -17 q 145 37 229 -17 q 106 68 127 49 q 79 98 86 87 q 55 134 65 115 l 168 199 l 169 199 l 174 189 q 198 162 182 178 q 274 121 229 134 q 334 115 304 115 q 440 141 393 115 q 462 158 449 146 q 479 200 479 179 q 422 259 479 237 q 352 274 403 266 q 189 318 243 295 q 144 342 166 328 q 76 427 92 376 q 68 476 68 450 l 68 480 q 116 601 68 545 q 145 628 136 622 q 189 655 168 645 q 338 687 256 687 z "},"t":{"ha":486,"x_min":22,"x_max":442,"o":"m 119 993 l 250 993 l 250 992 l 250 650 l 418 650 l 419 650 l 419 519 l 418 519 l 250 519 l 250 191 q 276 140 250 153 q 313 131 294 131 q 388 149 339 131 l 393 151 l 442 28 q 389 11 426 22 q 313 0 346 0 l 312 0 q 191 39 248 0 q 166 61 182 46 l 155 76 q 138 104 144 90 q 119 186 119 145 l 119 519 l 23 519 l 22 519 l 22 650 l 23 650 l 119 650 l 119 993 z "},"u":{"ha":782,"x_min":100,"x_max":679,"o":"m 384 0 l 378 0 q 127 132 203 0 q 100 255 100 184 l 100 648 l 102 650 l 229 650 l 231 648 l 231 254 q 300 144 231 170 q 375 131 330 131 l 386 131 q 503 157 469 131 q 549 257 549 184 l 549 648 l 550 650 l 677 650 l 679 648 l 679 5 l 677 3 l 550 3 l 549 5 l 549 49 l 547 49 q 457 7 513 23 q 384 0 427 0 z "},"v":{"ha":747,"x_min":23,"x_max":724,"o":"m 173 650 q 202 582 175 646 l 326 301 l 374 193 l 469 412 l 573 650 l 724 650 l 578 324 l 485 117 l 433 0 l 315 0 q 294 45 315 0 l 171 320 l 39 614 l 23 650 l 173 650 z "},"w":{"ha":1023,"x_min":36,"x_max":987,"o":"m 180 650 q 197 602 181 650 l 304 279 l 322 225 l 418 534 l 454 650 l 570 650 q 573 638 570 650 l 665 345 l 701 225 q 718 273 703 225 l 823 592 l 843 650 l 987 650 l 987 649 l 880 333 l 779 41 l 766 0 l 635 0 q 629 19 634 0 q 574 194 600 109 l 513 393 l 512 393 l 420 98 l 389 0 l 258 0 q 246 36 258 0 l 150 317 l 47 616 l 36 650 l 180 650 z "},"x":{"ha":804,"x_min":28,"x_max":774,"o":"m 227 650 q 314 543 234 643 l 401 435 l 575 650 l 750 650 l 750 649 l 526 378 l 498 345 l 635 174 l 774 0 l 601 0 l 557 55 l 401 254 l 201 0 l 28 0 l 28 1 l 245 271 l 304 345 l 151 530 l 52 650 l 227 650 z "},"y":{"ha":759,"x_min":23,"x_max":735,"o":"m 173 650 q 179 636 174 649 l 275 408 l 379 164 q 408 232 381 168 l 498 437 l 592 650 l 735 650 l 590 318 l 469 41 l 343 -246 l 323 -292 l 180 -292 l 179 -292 l 308 0 l 175 304 l 39 612 l 23 650 l 173 650 z "},"z":{"ha":734,"x_min":60,"x_max":678,"o":"m 93 650 l 676 650 l 678 648 l 313 131 l 668 131 l 670 129 l 670 2 l 668 0 l 60 0 l 60 1 l 426 519 l 93 519 l 92 521 l 92 648 l 93 650 z "},"{":{"ha":575,"x_min":106,"x_max":450,"o":"m 420 1047 l 449 1047 l 450 1046 l 450 917 l 450 916 l 449 916 l 416 917 q 326 871 337 913 q 321 844 321 861 l 321 529 q 281 429 321 479 q 321 328 321 378 l 321 13 q 360 -50 321 -35 q 416 -60 392 -60 l 450 -58 l 450 -60 l 450 -189 l 450 -190 l 418 -190 q 243 -125 309 -190 q 191 13 191 -71 l 191 326 q 156 363 191 342 l 106 385 l 106 472 q 155 494 106 475 q 191 532 191 515 l 191 844 q 304 1024 191 971 q 420 1047 356 1047 z "},"|":{"ha":334,"x_min":102,"x_max":233,"o":"m 102 949 l 232 949 l 233 949 l 233 1 l 232 1 l 102 1 l 102 1 l 102 949 l 102 949 z "},"}":{"ha":575,"x_min":125,"x_max":469,"o":"m 155 1047 q 271 1024 219 1047 q 384 844 384 971 l 384 532 q 420 494 384 515 q 469 472 469 475 l 469 385 l 419 363 q 384 326 384 342 l 384 13 q 332 -125 384 -71 q 157 -190 266 -190 l 125 -190 l 125 -189 l 125 -60 l 125 -58 l 159 -60 q 215 -50 183 -60 q 254 13 254 -35 l 254 328 q 294 429 254 378 q 254 529 254 479 l 254 844 q 250 871 254 861 q 159 917 238 913 l 126 916 l 125 916 l 125 917 l 125 1046 l 126 1047 l 155 1047 z "},"~":{"ha":514,"x_min":41,"x_max":475,"o":"m 475 299 q 430 265 452 279 q 362 245 395 245 q 258 284 327 245 q 153 323 189 323 q 90 300 123 323 q 41 251 68 286 l 41 374 q 87 415 64 402 q 153 436 121 436 q 260 396 191 436 q 362 357 330 357 q 426 379 393 357 q 475 430 448 395 l 475 299 z "},"¡":{"ha":482,"x_min":180,"x_max":353,"o":"m 352 0 l 181 0 l 180 1 l 201 785 l 201 786 l 332 786 l 332 785 l 353 1 l 352 0 m 266 822 q 197 857 225 822 q 181 905 181 881 l 181 910 q 208 970 181 943 q 246 991 227 987 q 262 993 256 993 l 271 993 q 317 977 293 993 q 349 932 340 960 q 352 910 352 920 l 352 905 q 326 846 352 873 q 266 822 300 822 z "},"¢":{"ha":707,"x_min":61,"x_max":663,"o":"m 296 829 l 296 937 l 297 938 l 427 938 l 427 937 l 427 841 q 581 781 509 831 q 617 749 597 768 q 650 710 642 723 q 661 695 661 696 l 552 623 l 551 623 q 525 655 544 635 q 427 708 481 697 l 427 302 q 501 334 466 309 q 533 362 513 342 q 553 389 545 376 l 553 389 l 663 317 q 631 276 651 298 q 599 244 608 251 q 560 216 576 226 q 427 169 496 176 l 427 72 l 427 71 l 297 71 l 296 72 l 296 180 q 210 222 252 194 q 180 244 193 233 q 142 282 155 267 q 104 338 115 315 q 79 395 91 359 q 61 499 61 450 l 61 510 q 98 663 61 586 q 125 706 110 684 q 159 747 136 722 q 206 786 186 772 q 296 829 250 815 m 296 322 l 296 688 q 258 659 277 676 q 231 628 236 637 q 192 505 192 572 q 239 371 192 431 q 270 340 254 353 q 296 322 283 330 z "},"£":{"ha":879,"x_min":36,"x_max":811,"o":"m 477 965 l 486 965 q 633 926 559 965 q 684 891 657 913 l 691 884 l 600 790 q 536 825 573 814 q 481 834 508 834 q 379 800 428 834 q 338 755 348 780 q 330 713 330 736 l 330 709 q 361 603 330 663 q 387 551 382 562 l 611 551 l 611 420 l 418 420 q 385 296 418 363 q 347 236 370 269 q 321 203 334 218 q 393 185 363 198 q 438 160 414 176 q 467 136 451 150 q 565 96 517 96 q 718 180 635 96 l 811 88 q 762 43 777 54 q 697 0 730 18 q 569 -35 630 -35 l 560 -35 q 433 1 498 -35 q 380 38 408 15 q 345 62 357 58 q 294 73 323 73 l 292 73 q 136 22 227 73 l 115 8 l 36 113 l 83 152 q 163 224 118 182 q 222 289 208 270 q 259 340 247 319 q 288 420 288 389 l 140 420 l 140 551 l 140 551 l 241 551 q 199 712 199 634 q 258 869 199 803 q 288 896 279 891 q 333 926 314 916 q 477 965 406 965 z "},"¤":{"ha":974,"x_min":43,"x_max":933,"o":"m 174 515 q 231 345 174 423 q 264 307 242 330 q 308 273 294 281 q 354 248 329 259 q 488 219 419 219 q 665 271 583 219 q 762 370 724 309 q 802 516 802 439 q 734 699 802 616 q 692 741 708 729 q 641 774 663 764 q 488 812 570 812 q 311 760 393 812 q 191 611 226 705 q 174 515 174 565 m 483 943 l 494 943 q 688 898 591 943 q 749 862 720 882 l 750 861 l 823 933 q 916 840 911 844 l 916 840 l 846 771 q 884 712 868 742 q 933 517 933 618 l 933 514 q 861 281 933 390 q 850 267 850 267 l 916 202 l 823 109 l 757 174 q 488 88 635 88 q 237 163 353 88 l 219 174 q 153 109 157 113 l 61 202 l 125 267 q 94 315 109 290 q 64 382 79 342 q 43 510 43 448 l 43 521 q 86 700 43 610 q 125 764 100 730 l 131 771 l 61 840 l 153 933 l 226 861 q 279 893 251 878 q 354 923 309 909 q 483 943 420 943 z "},"¥":{"ha":852,"x_min":43,"x_max":811,"o":"m 140 943 l 299 765 l 427 621 l 633 853 l 713 943 q 811 855 809 858 l 630 652 l 492 498 l 492 480 l 718 480 l 718 349 l 717 349 l 492 349 l 492 321 l 717 321 l 718 320 l 718 191 l 717 191 l 492 191 l 492 1 l 361 1 l 361 191 l 137 191 l 136 191 l 136 320 l 137 321 l 361 321 l 361 349 l 137 349 l 136 349 l 136 480 l 361 480 l 361 498 l 157 727 l 43 855 l 43 856 q 140 943 47 861 z "},"¦":{"ha":402,"x_min":136,"x_max":267,"o":"m 267 1017 l 267 577 l 266 576 l 136 576 l 136 577 l 136 1017 l 267 1017 m 267 102 l 267 -338 l 266 -339 l 136 -339 l 136 -338 l 136 102 l 267 102 z "},"§":{"ha":648,"x_min":80,"x_max":572,"o":"m 323 589 q 248 563 283 589 q 211 494 211 533 q 243 429 211 457 q 326 399 279 399 q 417 436 379 399 q 430 454 426 446 q 441 494 441 473 q 402 565 441 534 q 330 589 368 589 l 323 589 m 326 1008 l 336 1008 q 463 972 401 1008 q 503 942 482 961 q 534 907 528 918 q 552 877 546 890 l 435 818 l 435 818 q 379 868 418 851 q 330 878 357 878 q 253 857 286 878 q 235 842 245 853 q 220 806 220 824 l 220 801 q 248 761 220 777 q 300 736 264 749 q 395 711 334 724 q 439 695 420 704 q 486 666 461 684 q 530 622 513 644 q 572 494 572 563 l 572 494 q 508 341 572 408 l 492 326 q 531 286 514 309 q 562 188 562 241 l 562 182 q 528 76 562 127 q 503 45 520 64 q 468 19 481 26 q 426 -2 452 9 q 321 -20 376 -20 l 321 -20 q 142 53 216 -20 q 114 87 121 75 q 99 111 105 100 q 217 170 197 161 q 273 120 234 137 q 321 111 296 111 q 395 129 362 111 q 431 185 431 151 q 416 218 431 206 q 377 242 399 233 q 272 273 342 258 q 231 285 249 279 q 180 312 203 296 q 142 343 165 321 q 109 388 119 369 q 80 490 80 439 l 80 498 q 114 609 80 554 q 145 647 123 625 l 161 662 q 119 705 138 679 q 90 804 90 747 q 140 933 90 876 q 173 962 161 954 q 244 996 203 984 q 326 1008 286 1008 z "},"¨":{"ha":757,"x_min":164,"x_max":593,"o":"m 250 1322 q 319 1286 291 1322 q 335 1239 335 1263 l 335 1234 q 309 1174 335 1201 q 270 1153 289 1157 q 254 1151 260 1151 l 245 1151 q 199 1166 223 1151 q 168 1211 176 1183 q 164 1234 164 1223 l 164 1239 q 190 1298 164 1271 q 250 1322 216 1322 m 508 1322 q 576 1286 549 1322 q 593 1239 593 1263 l 593 1234 q 566 1174 593 1201 q 528 1153 547 1157 q 512 1151 517 1151 l 503 1151 q 457 1166 481 1151 q 425 1211 434 1183 q 422 1234 422 1223 l 422 1239 q 448 1298 422 1271 q 508 1322 473 1322 z "},"©":{"ha":1373,"x_min":119,"x_max":1255,"o":"m 711 819 l 719 819 q 886 772 805 819 q 931 739 908 759 q 968 701 955 718 q 985 678 977 690 l 985 677 l 878 603 q 854 631 870 614 q 813 663 831 653 q 715 688 767 688 q 603 653 654 688 q 549 598 571 631 q 517 492 517 548 q 572 356 517 415 q 606 328 592 336 q 714 295 656 295 l 716 295 q 850 349 791 295 q 878 381 871 369 l 880 382 l 987 309 q 951 263 977 291 q 907 225 925 238 q 869 202 886 211 q 817 180 846 189 q 721 164 766 164 l 709 164 q 579 193 646 164 q 409 372 458 250 q 387 486 387 431 l 387 497 q 424 644 387 571 q 459 698 437 669 q 512 749 486 729 q 563 783 539 770 q 711 819 636 819 m 686 1069 q 1011 968 862 1069 q 1075 916 1039 949 q 1121 868 1113 879 q 1164 811 1148 835 q 1255 501 1255 667 q 1167 198 1255 339 q 1114 127 1148 167 q 1055 68 1079 88 q 994 22 1019 39 q 686 -67 850 -67 q 376 24 522 -67 q 308 78 346 45 q 258 127 267 117 q 202 204 220 175 q 163 278 180 238 q 119 494 119 387 l 119 509 q 165 727 119 616 q 214 819 184 770 q 263 880 233 846 q 317 932 301 920 q 391 987 358 967 q 686 1069 529 1069 m 248 502 l 248 499 q 326 250 248 366 q 366 202 341 229 q 405 165 393 174 q 463 123 435 140 q 685 62 568 62 l 688 62 q 926 134 815 62 q 966 163 943 144 q 1011 204 978 172 l 1023 220 q 1065 279 1050 252 q 1126 500 1126 384 q 1043 757 1126 639 q 998 810 1028 778 q 937 861 961 846 q 686 940 821 940 q 433 859 550 940 q 378 812 414 846 q 332 760 345 779 q 302 711 315 735 q 248 502 248 612 z "},"ª":{"ha":439,"x_min":0,"x_max":0,"o":""},"«":{"ha":916,"x_min":79,"x_max":798,"o":"m 79 273 l 79 364 l 317 528 l 349 551 l 350 551 q 389 494 353 547 l 425 444 l 425 443 l 244 319 l 425 194 q 350 86 353 90 l 80 272 l 79 273 m 452 273 l 452 364 l 690 528 l 722 551 l 723 551 q 762 494 726 547 l 798 444 l 798 443 l 617 319 l 798 194 q 723 86 726 90 l 453 272 l 452 273 z "},"¬":{"ha":714,"x_min":102,"x_max":612,"o":"m 102 549 l 612 549 l 612 549 l 612 237 l 481 237 l 481 418 l 102 418 l 102 549 z "},"®":{"ha":884,"x_min":119,"x_max":765,"o":"m 390 808 l 390 671 l 454 671 q 510 694 488 671 q 528 740 528 713 l 528 745 q 494 799 528 780 q 455 808 476 808 l 390 808 m 341 857 l 457 857 q 515 843 486 857 q 534 831 524 839 q 548 819 539 827 q 568 788 562 804 q 577 747 577 768 l 577 738 q 564 685 577 711 q 551 666 559 676 q 534 649 542 656 q 513 635 521 640 q 505 632 508 633 q 532 581 505 631 l 584 484 l 526 484 q 482 567 524 487 l 454 622 l 391 622 l 390 621 l 390 484 l 341 484 l 341 857 m 441 993 q 627 935 542 993 q 663 905 642 924 q 689 878 684 884 q 713 846 705 859 q 765 669 765 764 q 715 497 765 577 q 686 456 705 479 q 652 423 665 435 q 616 397 631 406 q 441 346 535 346 q 266 398 348 346 q 227 429 248 410 q 198 457 203 450 q 166 500 176 484 q 144 543 154 519 q 119 665 119 604 l 119 674 q 144 798 119 735 q 174 850 156 823 q 201 885 184 865 q 232 915 222 908 q 274 945 255 935 q 441 993 353 993 m 173 670 l 173 668 q 221 515 173 586 q 245 486 230 502 q 269 463 262 469 q 305 437 288 448 q 441 401 370 401 l 443 401 q 589 444 521 401 q 614 463 600 450 q 641 487 621 467 l 648 497 q 674 534 665 516 q 711 669 711 597 q 661 826 711 754 q 633 859 651 839 q 595 890 610 881 q 441 939 524 939 q 286 889 358 939 q 253 860 275 881 q 224 828 233 840 q 206 798 214 813 q 173 670 173 737 z "},"¯":{"ha":454,"x_min":0,"x_max":0,"o":""},"°":{"ha":671,"x_min":67,"x_max":534,"o":"m 212 736 q 243 668 212 697 q 300 646 269 646 q 369 679 340 646 q 391 736 391 704 q 353 808 391 779 q 300 825 329 825 q 229 788 258 825 q 212 736 212 764 m 296 970 l 306 970 q 425 935 366 970 q 522 812 494 892 q 534 736 534 773 q 476 582 534 651 q 443 551 455 559 q 301 503 378 503 q 149 559 217 503 q 120 589 126 579 q 99 616 109 601 q 67 731 67 674 l 67 741 q 104 861 67 802 q 223 957 146 928 q 296 970 262 970 z "},"±":{"ha":585,"x_min":52,"x_max":533,"o":"m 52 0 l 532 0 l 533 -1 l 533 -130 l 532 -131 l 52 -131 l 52 0 m 227 281 l 52 281 l 52 412 l 227 412 l 227 586 l 228 587 l 357 587 l 358 586 l 358 412 l 532 412 l 533 411 l 533 281 l 532 281 l 358 281 l 358 105 l 227 105 l 227 281 z "},"²":{"ha":688,"x_min":0,"x_max":0,"o":""},"³":{"ha":688,"x_min":0,"x_max":0,"o":""},"´":{"ha":656,"x_min":164,"x_max":492,"o":"m 492 1267 l 233 1107 l 232 1108 l 164 1218 l 164 1219 l 424 1378 l 492 1267 z "},"µ":{"ha":797,"x_min":109,"x_max":687,"o":"m 239 31 l 239 -271 l 239 -272 l 109 -272 l 109 -271 l 109 650 l 109 650 l 239 650 l 239 650 l 239 252 q 309 144 240 170 q 383 131 338 131 l 394 131 q 511 157 477 131 q 557 257 557 184 l 557 648 l 558 650 l 686 650 l 687 648 l 687 5 l 686 3 l 558 3 l 557 5 l 557 42 l 555 42 q 465 7 521 23 q 392 0 435 0 l 386 0 q 239 31 301 0 z "},"¶":{"ha":807,"x_min":73,"x_max":686,"o":"m 498 68 l 498 788 l 422 788 l 422 68 l 421 68 l 291 68 l 290 68 l 290 450 q 142 517 199 463 q 73 683 73 581 q 145 854 73 789 q 339 920 218 920 l 640 920 l 640 919 l 686 919 l 686 918 l 686 789 l 686 788 l 629 788 l 629 68 l 629 68 l 498 68 l 498 68 z "},"·":{"ha":499,"x_min":164,"x_max":335,"o":"m 250 609 q 319 574 291 609 q 335 526 335 550 l 335 521 q 309 461 335 488 q 270 440 289 444 q 254 438 260 438 l 245 438 q 199 454 223 438 q 168 498 176 471 q 164 521 164 511 l 164 526 q 190 585 164 558 q 250 609 216 609 z "},"¸":{"ha":608,"x_min":166,"x_max":441,"o":"m 237 21 l 342 -1 l 342 -1 l 334 -43 q 365 -50 355 -47 q 427 -106 407 -68 q 441 -166 441 -137 l 441 -171 q 410 -254 441 -215 q 388 -275 395 -270 q 295 -308 345 -308 l 292 -308 q 191 -269 238 -308 q 170 -247 172 -251 l 166 -243 l 166 -242 l 252 -176 q 293 -199 271 -199 q 322 -189 309 -199 q 333 -169 333 -179 q 328 -154 333 -161 q 313 -150 323 -150 l 309 -150 q 264 -161 292 -150 l 194 -184 l 194 -184 l 237 21 l 237 21 z "},"¹":{"ha":688,"x_min":0,"x_max":0,"o":""},"º":{"ha":487,"x_min":0,"x_max":0,"o":""},"»":{"ha":916,"x_min":118,"x_max":836,"o":"m 836 272 l 566 86 q 491 194 562 90 l 671 319 l 491 443 l 491 444 l 526 494 q 566 551 562 547 l 566 551 l 599 528 l 836 364 l 836 273 l 836 272 m 463 272 l 193 86 q 118 194 189 90 l 298 319 l 118 443 l 118 444 l 153 494 q 193 551 189 547 l 193 551 l 226 528 l 463 364 l 463 273 l 463 272 z "},"¼":{"ha":1158,"x_min":0,"x_max":0,"o":""},"½":{"ha":1332,"x_min":0,"x_max":0,"o":""},"¾":{"ha":1158,"x_min":0,"x_max":0,"o":""},"¿":{"ha":753,"x_min":64,"x_max":663,"o":"m 370 854 q 304 886 331 854 q 285 938 285 911 l 285 942 q 313 1004 285 977 q 366 1025 338 1025 l 375 1025 q 420 1010 396 1025 q 453 962 444 994 q 456 940 456 950 q 424 873 456 901 q 370 854 400 854 m 368 0 l 358 0 q 237 28 299 0 q 182 61 211 40 q 151 90 168 73 q 113 137 125 117 q 64 304 64 214 q 109 462 64 384 q 140 505 121 482 q 180 545 163 530 q 259 602 205 564 q 289 627 273 612 q 301 644 297 637 q 304 661 304 653 l 304 818 l 305 819 l 435 819 l 435 818 l 436 663 q 349 506 436 572 q 275 452 328 489 q 227 404 246 431 q 197 331 205 371 q 195 304 195 315 q 241 184 195 236 q 363 131 294 131 q 483 181 431 131 q 532 304 532 234 l 532 327 l 663 327 l 663 298 q 629 163 663 231 q 597 113 618 140 q 567 81 589 102 q 534 54 548 63 q 481 24 508 36 q 368 0 423 0 z "},"À":{"ha":971,"x_min":24,"x_max":953,"o":"m 392 1375 l 652 1217 l 652 1215 l 584 1105 l 583 1105 l 323 1264 l 392 1375 m 304 345 l 668 345 l 487 793 q 412 610 485 793 l 304 345 m 549 993 q 608 847 551 993 l 953 1 l 951 0 l 810 0 q 790 45 807 0 l 722 214 l 250 214 l 164 0 l 24 0 l 24 1 l 367 848 l 427 993 l 549 993 z "},"Á":{"ha":971,"x_min":24,"x_max":953,"o":"m 323 1216 l 583 1375 l 584 1375 l 652 1265 l 652 1263 l 392 1105 l 323 1216 m 304 345 l 668 345 l 487 793 q 412 610 485 793 l 304 345 m 549 993 q 608 847 551 993 l 953 1 l 951 0 l 810 0 q 790 45 807 0 l 722 214 l 250 214 l 164 0 l 24 0 l 24 1 l 367 848 l 427 993 l 549 993 z "},"Â":{"ha":971,"x_min":24,"x_max":953,"o":"m 450 1362 l 526 1362 q 677 1192 535 1353 l 580 1105 l 488 1208 l 397 1105 l 396 1105 l 298 1192 l 298 1192 l 450 1362 m 304 345 l 668 345 l 487 793 q 412 610 485 793 l 304 345 m 549 993 q 608 847 551 993 l 953 1 l 951 0 l 810 0 q 790 45 807 0 l 722 214 l 250 214 l 164 0 l 24 0 l 24 1 l 367 848 l 427 993 l 549 993 z "},"Ã":{"ha":971,"x_min":24,"x_max":953,"o":"m 705 1172 q 661 1138 683 1152 q 593 1118 626 1118 q 488 1157 557 1118 q 383 1196 418 1196 q 320 1173 353 1196 q 271 1124 298 1158 l 271 1247 q 317 1288 294 1275 q 383 1309 351 1309 q 491 1269 422 1309 q 593 1230 560 1230 q 656 1252 623 1230 q 705 1303 678 1267 l 705 1172 m 304 345 l 668 345 l 487 793 q 412 610 485 793 l 304 345 m 549 993 q 608 847 551 993 l 953 1 l 951 0 l 810 0 q 790 45 807 0 l 722 214 l 250 214 l 164 0 l 24 0 l 24 1 l 367 848 l 427 993 l 549 993 z "},"Ä":{"ha":971,"x_min":24,"x_max":953,"o":"m 360 1296 q 429 1261 401 1296 q 445 1213 445 1237 l 445 1208 q 418 1148 445 1175 q 380 1127 399 1131 q 364 1125 370 1125 l 355 1125 q 309 1141 333 1125 q 277 1185 286 1158 q 274 1208 274 1198 l 274 1213 q 300 1272 274 1245 q 360 1296 326 1296 m 618 1296 q 686 1261 659 1296 q 703 1213 703 1237 l 703 1208 q 676 1148 703 1175 q 637 1127 656 1131 q 622 1125 627 1125 l 612 1125 q 567 1141 591 1125 q 535 1185 544 1158 q 532 1208 532 1198 l 532 1213 q 557 1272 532 1245 q 618 1296 583 1296 m 304 345 l 668 345 l 487 793 q 412 610 485 793 l 304 345 m 549 993 q 608 847 551 993 l 953 1 l 951 0 l 810 0 q 790 45 807 0 l 722 214 l 250 214 l 164 0 l 24 0 l 24 1 l 367 848 l 427 993 l 549 993 z "},"Å":{"ha":971,"x_min":24,"x_max":953,"o":"m 441 1104 l 441 1103 q 460 1065 441 1081 q 488 1055 473 1055 q 526 1074 511 1055 q 536 1103 536 1088 l 536 1105 q 522 1137 536 1123 q 488 1151 507 1151 q 455 1138 469 1151 q 441 1104 441 1123 m 304 345 l 668 345 l 487 793 q 412 610 485 793 l 304 345 m 427 992 l 426 992 q 406 1006 416 998 q 391 1023 395 1016 q 375 1045 380 1036 q 361 1099 361 1074 l 361 1106 q 386 1178 361 1143 q 403 1198 391 1185 q 487 1230 441 1230 l 489 1230 q 571 1199 534 1230 q 589 1179 585 1185 q 615 1103 615 1144 q 576 1013 615 1052 l 570 1006 q 551 992 561 998 l 550 992 q 608 847 555 983 l 953 1 l 951 0 l 810 0 q 790 45 807 0 l 722 214 l 250 214 l 164 0 l 24 0 l 24 1 l 367 848 l 427 992 z "},"Æ":{"ha":1329,"x_min":24,"x_max":1256,"o":"m 720 764 l 473 413 l 473 412 l 720 412 l 722 414 l 722 764 l 720 764 m 722 993 l 1254 993 l 1256 991 l 1256 864 l 1254 862 l 851 862 l 851 563 l 853 561 l 1171 561 l 1172 559 l 1172 433 l 1171 431 l 851 431 l 851 130 l 1254 130 l 1256 128 l 1256 2 l 1254 0 l 723 0 l 722 2 l 722 280 l 720 281 l 382 281 q 252 97 377 277 q 182 0 187 5 l 26 0 l 24 2 l 372 497 l 722 993 z "},"Ç":{"ha":804,"x_min":66,"x_max":944,"o":"m 544 0 l 535 -43 q 566 -50 555 -47 q 627 -106 608 -68 q 643 -166 643 -137 l 643 -171 q 611 -254 643 -215 q 589 -275 597 -270 q 496 -308 545 -308 l 492 -308 q 392 -269 439 -308 q 370 -247 373 -251 l 367 -243 l 367 -242 l 453 -176 q 494 -199 472 -199 q 523 -189 509 -199 q 534 -169 534 -179 q 529 -154 534 -161 q 512 -149 524 -150 l 509 -149 q 465 -158 492 -150 l 395 -182 l 395 -181 l 435 11 q 190 159 299 42 q 66 494 66 309 l 66 498 q 192 836 66 686 q 534 993 338 993 l 536 993 q 871 844 728 993 q 943 743 922 785 q 829 680 938 739 q 774 757 810 713 q 536 863 669 863 q 296 755 401 863 q 196 497 196 642 q 324 210 196 329 q 530 132 421 132 l 544 132 q 767 230 663 132 q 829 315 811 279 l 944 254 l 944 252 q 883 161 921 209 q 544 0 738 3 z "},"È":{"ha":724,"x_min":117,"x_max":651,"o":"m 288 1375 l 548 1217 l 548 1215 l 480 1105 l 479 1105 l 220 1264 l 288 1375 m 117 993 l 650 993 l 651 992 l 651 862 l 248 862 l 248 562 l 567 562 l 568 561 l 568 432 l 567 431 l 248 431 l 248 131 l 651 131 l 651 1 l 650 0 l 117 0 l 117 1 l 117 992 l 117 993 z "},"É":{"ha":724,"x_min":117,"x_max":651,"o":"m 548 1264 l 288 1105 l 288 1105 l 220 1215 l 220 1217 l 479 1375 l 548 1264 m 117 993 l 650 993 l 651 992 l 651 862 l 248 862 l 248 562 l 567 562 l 568 561 l 568 432 l 567 431 l 248 431 l 248 131 l 651 131 l 651 1 l 650 0 l 117 0 l 117 1 l 117 992 l 117 993 z "},"Ê":{"ha":781,"x_min":117,"x_max":651,"o":"m 117 993 l 650 993 l 651 992 l 651 862 l 248 862 l 248 562 l 567 562 l 568 561 l 568 432 l 567 431 l 248 431 l 248 131 l 651 131 l 651 1 l 650 0 l 117 0 l 117 1 l 117 992 l 117 993 m 346 1362 l 422 1362 q 574 1192 431 1353 l 476 1105 l 385 1208 l 293 1105 l 292 1105 l 195 1192 l 195 1192 l 346 1362 z "},"Ë":{"ha":781,"x_min":117,"x_max":651,"o":"m 117 993 l 650 993 l 651 992 l 651 862 l 248 862 l 248 562 l 567 562 l 568 561 l 568 432 l 567 431 l 248 431 l 248 131 l 651 131 l 651 1 l 650 0 l 117 0 l 117 1 l 117 992 l 117 993 m 256 1296 q 324 1261 296 1296 q 340 1213 340 1237 l 340 1208 q 314 1148 340 1175 q 275 1127 294 1131 q 260 1125 265 1125 l 250 1125 q 205 1141 229 1125 q 173 1185 182 1158 q 170 1208 170 1198 l 170 1213 q 195 1272 170 1245 q 256 1296 221 1296 m 513 1296 q 582 1261 554 1296 q 598 1213 598 1237 l 598 1208 q 572 1148 598 1175 q 533 1127 552 1131 q 517 1125 523 1125 l 508 1125 q 463 1141 486 1125 q 431 1185 439 1158 q 427 1208 427 1198 l 427 1213 q 453 1272 427 1245 q 513 1296 479 1296 z "},"Ì":{"ha":364,"x_min":18,"x_max":346,"o":"m 117 993 l 247 993 l 248 992 l 248 1 l 247 0 l 117 0 l 117 1 l 117 992 l 117 993 m 86 1375 l 346 1217 l 346 1215 l 278 1105 l 277 1105 l 18 1264 l 86 1375 z "},"Í":{"ha":364,"x_min":18,"x_max":346,"o":"m 117 993 l 247 993 l 248 992 l 248 1 l 247 0 l 117 0 l 117 1 l 117 992 l 117 993 m 346 1264 l 86 1105 l 85 1105 l 18 1215 l 18 1217 l 277 1375 l 346 1264 z "},"Î":{"ha":364,"x_min":-7,"x_max":372,"o":"m 117 993 l 247 993 l 248 992 l 248 1 l 247 0 l 117 0 l 117 1 l 117 992 l 117 993 m 144 1362 l 220 1362 q 372 1192 229 1353 l 274 1105 l 182 1208 l 91 1105 l 90 1105 l -7 1192 l -7 1192 l 144 1362 z "},"Ï":{"ha":364,"x_min":-19,"x_max":382,"o":"m 117 993 l 247 993 l 248 992 l 248 1 l 247 0 l 117 0 l 117 1 l 117 992 l 117 993 m 67 1296 q 136 1261 108 1296 q 152 1213 152 1237 l 152 1208 q 125 1148 152 1175 q 87 1127 106 1131 q 71 1125 77 1125 l 62 1125 q 16 1141 40 1125 q -16 1185 -7 1158 q -19 1208 -19 1198 l -19 1213 q 7 1272 -19 1245 q 67 1296 33 1296 m 298 1296 q 366 1261 338 1296 q 382 1213 382 1237 l 382 1208 q 356 1148 382 1175 q 317 1127 336 1131 q 302 1125 307 1125 l 292 1125 q 247 1141 271 1125 q 215 1185 224 1158 q 212 1208 212 1198 l 212 1213 q 237 1272 212 1245 q 298 1296 263 1296 z "},"Ð":{"ha":983,"x_min":76,"x_max":920,"o":"m 294 562 l 428 562 l 428 430 l 294 430 l 294 131 l 413 131 q 701 258 587 131 q 790 496 790 365 q 699 735 790 629 q 616 806 646 791 q 532 845 589 825 q 399 861 481 861 l 295 861 l 294 860 l 294 562 m 163 430 l 76 430 l 76 562 l 163 562 l 163 990 l 165 992 l 423 992 q 748 871 602 992 q 820 795 804 819 q 920 500 920 659 l 920 492 q 770 140 920 294 q 608 35 687 65 q 429 0 517 0 l 165 0 l 163 2 l 163 430 z "},"Ñ":{"ha":1028,"x_min":117,"x_max":911,"o":"m 731 1172 q 686 1138 708 1152 q 618 1118 651 1118 q 513 1157 582 1118 q 408 1196 444 1196 q 345 1173 379 1196 q 297 1124 323 1158 l 297 1247 q 342 1288 319 1275 q 408 1309 376 1309 q 516 1269 447 1309 q 618 1230 585 1230 q 681 1252 648 1230 q 731 1303 703 1267 l 731 1172 m 119 993 l 260 993 l 736 283 l 779 218 l 780 218 l 780 991 l 782 993 l 909 993 l 911 991 l 911 2 l 909 0 l 768 0 q 498 404 732 52 l 247 776 l 247 2 l 245 0 l 119 0 l 117 2 l 117 991 l 119 993 z "},"Ò":{"ha":1083,"x_min":67,"x_max":1022,"o":"m 449 1375 l 709 1217 l 709 1215 l 641 1105 l 640 1105 l 380 1264 l 449 1375 m 543 993 l 545 993 q 890 839 742 993 q 1022 496 1022 688 q 867 130 1022 286 q 545 0 722 0 q 225 127 368 0 q 144 227 162 192 q 67 496 67 351 l 67 498 q 224 866 67 709 l 270 903 q 543 993 397 993 m 198 497 q 320 218 198 336 q 545 132 420 132 q 821 275 708 132 q 891 491 891 378 l 891 500 q 794 751 891 639 q 545 863 686 863 q 277 729 389 863 q 198 497 198 622 z "},"Ó":{"ha":1083,"x_min":67,"x_max":1022,"o":"m 709 1264 l 449 1105 l 448 1105 l 380 1215 l 380 1217 l 640 1375 l 709 1264 m 543 993 l 545 993 q 890 839 742 993 q 1022 496 1022 688 q 867 130 1022 286 q 545 0 722 0 q 225 127 368 0 q 144 227 162 192 q 67 496 67 351 l 67 498 q 224 866 67 709 l 270 903 q 543 993 397 993 m 198 497 q 320 218 198 336 q 545 132 420 132 q 821 275 708 132 q 891 491 891 378 l 891 500 q 794 751 891 639 q 545 863 686 863 q 277 729 389 863 q 198 497 198 622 z "},"Ô":{"ha":1083,"x_min":67,"x_max":1022,"o":"m 506 1362 l 583 1362 q 734 1192 591 1353 l 636 1105 l 545 1208 l 453 1105 l 452 1105 l 355 1192 l 355 1192 l 506 1362 m 543 993 l 545 993 q 890 839 742 993 q 1022 496 1022 688 q 867 130 1022 286 q 545 0 722 0 q 225 127 368 0 q 144 227 162 192 q 67 496 67 351 l 67 498 q 224 866 67 709 l 270 903 q 543 993 397 993 m 198 497 q 320 218 198 336 q 545 132 420 132 q 821 275 708 132 q 891 491 891 378 l 891 500 q 794 751 891 639 q 545 863 686 863 q 277 729 389 863 q 198 497 198 622 z "},"Õ":{"ha":1083,"x_min":67,"x_max":1022,"o":"m 762 1172 q 716 1138 739 1152 q 648 1118 682 1118 q 543 1157 612 1118 q 439 1196 474 1196 q 376 1173 410 1196 q 328 1124 354 1158 l 328 1247 q 372 1288 350 1275 q 439 1309 407 1309 q 547 1269 477 1309 q 648 1230 616 1230 q 711 1252 678 1230 q 762 1303 734 1267 l 762 1172 m 543 993 l 545 993 q 890 839 742 993 q 1022 496 1022 688 q 867 130 1022 286 q 545 0 722 0 q 225 127 368 0 q 144 227 162 192 q 67 496 67 351 l 67 498 q 224 866 67 709 l 270 903 q 543 993 397 993 m 198 497 q 320 218 198 336 q 545 132 420 132 q 821 275 708 132 q 891 491 891 378 l 891 500 q 794 751 891 639 q 545 863 686 863 q 277 729 389 863 q 198 497 198 622 z "},"Ö":{"ha":1083,"x_min":67,"x_max":1022,"o":"m 415 1296 q 484 1261 456 1296 q 500 1213 500 1237 l 500 1208 q 473 1148 500 1175 q 435 1127 454 1131 q 419 1125 425 1125 l 410 1125 q 364 1141 388 1125 q 332 1185 341 1158 q 329 1208 329 1198 l 329 1213 q 355 1272 329 1245 q 415 1296 380 1296 m 673 1296 q 741 1261 713 1296 q 758 1213 758 1237 l 758 1208 q 731 1148 758 1175 q 692 1127 711 1131 q 677 1125 682 1125 l 667 1125 q 622 1141 646 1125 q 590 1185 599 1158 q 587 1208 587 1198 l 587 1213 q 612 1272 587 1245 q 673 1296 638 1296 m 543 993 l 545 993 q 890 839 742 993 q 1022 496 1022 688 q 867 130 1022 286 q 545 0 722 0 q 225 127 368 0 q 144 227 162 192 q 67 496 67 351 l 67 498 q 224 866 67 709 l 270 903 q 543 993 397 993 m 197 497 q 319 218 197 336 q 545 132 420 132 q 820 275 708 132 q 890 491 890 378 l 890 500 q 793 751 890 639 q 545 863 685 863 q 277 729 389 863 q 197 497 197 622 z "},"×":{"ha":565,"x_min":65,"x_max":500,"o":"m 282 237 l 157 112 l 65 204 l 190 329 l 65 454 l 65 454 l 157 546 l 157 546 l 282 421 l 407 546 l 408 546 l 500 454 l 500 454 l 375 329 l 500 204 l 407 112 l 282 237 z "},"Ø":{"ha":822,"x_min":67,"x_max":1022,"o":"m 701 823 q 545 863 629 863 q 277 729 389 863 q 197 497 197 622 q 319 218 197 336 q 326 213 323 216 l 701 823 m 800 743 l 435 150 q 545 132 488 132 q 820 275 708 132 q 890 491 890 378 l 890 500 q 800 743 890 634 m 769 935 l 845 1058 l 846 1059 l 954 995 l 954 994 l 870 859 q 890 839 880 849 q 1022 496 1022 688 q 867 130 1022 286 q 545 0 722 0 q 365 37 450 0 l 300 -70 l 299 -70 l 191 -7 l 191 -5 l 256 101 q 225 127 241 113 q 144 227 162 192 q 67 496 67 351 l 67 498 q 224 866 67 709 l 270 903 q 543 993 397 993 l 545 993 q 769 935 667 993 z "},"Ù":{"ha":1007,"x_min":115,"x_max":892,"o":"m 408 1375 l 668 1217 l 668 1215 l 600 1105 l 600 1105 l 340 1264 l 408 1375 m 117 993 l 244 993 l 245 991 l 245 387 q 283 225 245 277 q 397 139 317 166 q 455 132 427 132 l 552 132 q 732 237 668 132 q 761 368 761 293 l 761 991 l 763 993 l 890 993 l 892 991 l 892 402 q 871 231 892 284 q 736 53 830 114 q 536 0 654 0 l 471 0 q 222 93 317 0 q 159 176 181 134 q 115 361 115 262 l 115 991 l 117 993 z "},"Ú":{"ha":1007,"x_min":115,"x_max":892,"o":"m 668 1264 l 408 1105 l 408 1105 l 340 1215 l 340 1217 l 600 1375 l 668 1264 m 117 993 l 244 993 l 245 991 l 245 387 q 283 225 245 277 q 397 139 317 166 q 455 132 427 132 l 552 132 q 732 237 668 132 q 761 368 761 293 l 761 991 l 763 993 l 890 993 l 892 991 l 892 402 q 871 231 892 284 q 736 53 830 114 q 536 0 654 0 l 471 0 q 222 93 317 0 q 159 176 181 134 q 115 361 115 262 l 115 991 l 117 993 z "},"Û":{"ha":1007,"x_min":115,"x_max":892,"o":"m 466 1362 l 543 1362 q 694 1192 551 1353 l 596 1105 l 505 1208 l 413 1105 l 412 1105 l 315 1192 l 315 1192 l 466 1362 m 117 993 l 244 993 l 245 991 l 245 387 q 283 225 245 277 q 397 139 317 166 q 455 132 427 132 l 552 132 q 732 237 668 132 q 761 368 761 293 l 761 991 l 763 993 l 890 993 l 892 991 l 892 402 q 871 231 892 284 q 736 53 830 114 q 536 0 654 0 l 471 0 q 222 93 317 0 q 159 176 181 134 q 115 361 115 262 l 115 991 l 117 993 z "},"Ü":{"ha":922,"x_min":115,"x_max":892,"o":"m 377 1296 q 446 1261 418 1296 q 462 1213 462 1237 l 462 1208 q 435 1148 462 1175 q 397 1127 416 1131 q 381 1125 387 1125 l 372 1125 q 326 1141 350 1125 q 294 1185 303 1158 q 291 1208 291 1198 l 291 1213 q 317 1272 291 1245 q 377 1296 342 1296 m 635 1296 q 703 1261 675 1296 q 720 1213 720 1237 l 720 1208 q 693 1148 720 1175 q 654 1127 673 1131 q 639 1125 644 1125 l 629 1125 q 584 1141 608 1125 q 552 1185 561 1158 q 549 1208 549 1198 l 549 1213 q 574 1272 549 1245 q 635 1296 600 1296 m 117 993 l 244 993 l 245 991 l 245 387 q 283 225 245 277 q 397 139 317 166 q 455 132 427 132 l 552 132 q 732 237 668 132 q 761 368 761 293 l 761 991 l 763 993 l 890 993 l 892 991 l 892 402 q 871 231 892 284 q 736 53 830 114 q 536 0 654 0 l 471 0 q 222 93 317 0 q 159 176 181 134 q 115 361 115 262 l 115 991 l 117 993 z "},"Ý":{"ha":922,"x_min":20,"x_max":905,"o":"m 627 1264 l 367 1105 l 366 1105 l 298 1215 l 298 1217 l 558 1375 l 627 1264 m 20 993 l 186 993 q 323 803 194 985 l 463 609 q 739 993 724 976 l 905 993 l 905 992 l 532 479 l 532 2 l 530 0 l 395 0 l 393 2 l 393 477 q 349 541 393 481 l 20 992 l 20 993 z "},"Þ":{"ha":928,"x_min":104,"x_max":867,"o":"m 235 151 l 235 1 l 234 0 l 104 0 l 104 1 l 104 992 l 104 993 l 234 993 l 235 992 l 235 843 l 532 843 q 722 798 638 843 q 767 768 744 786 q 795 740 775 762 q 867 543 867 658 l 867 451 q 793 252 867 334 q 760 220 772 230 q 718 193 735 202 q 680 176 701 184 q 533 151 610 151 l 235 151 m 235 712 l 235 281 l 527 281 q 702 346 647 281 q 720 374 715 363 q 736 458 736 406 l 736 535 q 718 625 736 591 q 631 696 693 672 q 525 712 587 712 l 235 712 z "},"ß":{"ha":922,"x_min":104,"x_max":859,"o":"m 397 993 q 604 944 517 993 q 701 781 701 882 l 701 776 q 627 597 701 692 q 582 507 582 535 q 677 429 582 475 q 859 194 859 326 q 760 17 859 96 q 575 -45 673 -45 q 326 91 429 -45 q 309 118 309 114 l 418 186 l 438 159 q 575 86 497 86 q 704 141 648 86 q 728 194 728 172 q 569 338 728 258 q 451 509 451 408 q 524 678 451 580 q 570 777 570 736 l 570 779 q 423 861 570 848 l 396 862 q 244 782 282 862 q 235 749 235 760 l 235 2 l 233 0 l 106 0 l 104 2 l 104 755 q 146 875 104 804 q 397 993 231 993 z "},"à":{"ha":821,"x_min":62,"x_max":720,"o":"m 295 1036 l 555 878 l 555 876 l 487 766 l 486 766 l 227 925 l 295 1036 m 394 660 q 588 574 507 660 l 588 648 l 590 650 l 718 650 l 720 648 l 720 1 l 718 0 l 590 0 l 588 1 l 588 67 q 393 -16 512 -16 l 392 -16 q 140 104 243 -16 q 62 321 62 201 l 62 322 q 178 580 62 471 q 394 660 273 660 m 193 322 q 286 146 193 215 q 383 115 337 115 l 398 115 q 524 168 463 115 q 588 321 588 233 l 588 322 q 496 497 588 431 q 395 528 445 528 l 385 528 q 237 453 303 528 q 193 322 193 391 z "},"á":{"ha":821,"x_min":62,"x_max":720,"o":"m 555 925 l 295 766 l 294 766 l 227 876 l 227 878 l 486 1036 l 555 925 m 394 660 q 588 574 507 660 l 588 648 l 590 650 l 718 650 l 720 648 l 720 1 l 718 0 l 590 0 l 588 1 l 588 67 q 393 -16 512 -16 l 392 -16 q 140 104 243 -16 q 62 321 62 201 l 62 322 q 178 580 62 471 q 394 660 273 660 m 193 322 q 286 146 193 215 q 383 115 337 115 l 398 115 q 524 168 463 115 q 588 321 588 233 l 588 322 q 496 497 588 431 q 395 528 445 528 l 385 528 q 237 453 303 528 q 193 322 193 391 z "},"â":{"ha":821,"x_min":62,"x_max":720,"o":"m 352 1023 l 429 1023 q 580 853 437 1014 l 482 766 l 391 869 l 299 766 l 298 766 l 201 852 l 201 853 l 352 1023 m 394 660 q 588 574 507 660 l 588 648 l 590 650 l 718 650 l 720 648 l 720 1 l 718 0 l 590 0 l 588 1 l 588 67 q 393 -16 512 -16 l 392 -16 q 140 104 243 -16 q 62 321 62 201 l 62 322 q 178 580 62 471 q 394 660 273 660 m 193 322 q 286 146 193 215 q 383 115 337 115 l 398 115 q 524 168 463 115 q 588 321 588 233 l 588 322 q 496 497 588 431 q 395 528 445 528 l 385 528 q 237 453 303 528 q 193 322 193 391 z "},"ã":{"ha":821,"x_min":62,"x_max":720,"o":"m 608 833 q 563 799 585 812 q 495 779 528 779 q 390 818 459 779 q 286 857 321 857 q 222 834 256 857 q 174 785 201 819 l 174 908 q 219 949 197 936 q 286 970 254 970 q 393 930 324 970 q 495 890 463 890 q 558 913 525 890 q 608 964 581 928 l 608 833 m 394 660 q 588 574 507 660 l 588 648 l 590 650 l 718 650 l 720 648 l 720 1 l 718 0 l 590 0 l 588 1 l 588 67 q 393 -16 512 -16 l 392 -16 q 140 104 243 -16 q 62 321 62 201 l 62 322 q 178 580 62 471 q 394 660 273 660 m 193 322 q 286 146 193 215 q 383 115 337 115 l 398 115 q 524 168 463 115 q 588 321 588 233 l 588 322 q 496 497 588 431 q 395 528 445 528 l 385 528 q 237 453 303 528 q 193 322 193 391 z "},"ä":{"ha":821,"x_min":62,"x_max":720,"o":"m 262 957 q 331 922 303 957 q 347 874 347 898 l 347 869 q 321 809 347 836 q 282 788 301 792 q 267 786 272 786 l 257 786 q 212 802 235 786 q 180 846 189 819 q 176 869 176 859 l 176 874 q 202 933 176 906 q 262 957 228 957 m 520 957 q 589 922 561 957 q 605 874 605 898 l 605 869 q 578 809 605 836 q 540 788 559 792 q 524 786 530 786 l 515 786 q 469 802 493 786 q 437 846 446 819 q 434 869 434 859 l 434 874 q 460 933 434 906 q 520 957 486 957 m 394 660 q 588 574 507 660 l 588 648 l 590 650 l 718 650 l 720 648 l 720 1 l 718 0 l 590 0 l 588 1 l 588 67 q 393 -16 512 -16 l 392 -16 q 140 104 243 -16 q 62 321 62 201 l 62 322 q 178 580 62 471 q 394 660 273 660 m 193 322 q 286 146 193 215 q 383 115 337 115 l 398 115 q 524 168 463 115 q 588 321 588 233 l 588 322 q 496 497 588 431 q 395 528 445 528 l 385 528 q 237 453 303 528 q 193 322 193 391 z "},"å":{"ha":821,"x_min":62,"x_max":720,"o":"m 347 878 l 347 878 q 365 842 347 857 q 391 833 376 833 q 427 850 412 833 q 436 878 436 863 l 436 879 q 423 909 436 896 q 391 922 409 922 q 360 910 374 922 q 347 878 347 896 m 390 996 l 392 996 q 469 967 434 996 q 486 949 482 954 q 510 878 510 916 q 474 793 510 829 l 468 786 q 391 759 434 759 q 315 786 349 759 q 300 802 304 795 q 286 823 290 814 q 273 873 273 850 l 273 880 q 296 947 273 915 q 311 966 300 954 q 390 996 347 996 m 394 660 q 588 574 507 660 l 588 648 l 590 650 l 718 650 l 720 648 l 720 1 l 718 0 l 590 0 l 588 1 l 588 67 q 393 -16 512 -16 l 392 -16 q 140 104 243 -16 q 62 321 62 201 l 62 322 q 178 580 62 471 q 394 660 273 660 m 193 322 q 286 146 193 215 q 383 115 337 115 l 398 115 q 524 168 463 115 q 588 321 588 233 l 588 322 q 496 497 588 431 q 395 528 445 528 l 385 528 q 237 453 303 528 q 193 322 193 391 z "},"æ":{"ha":1293,"x_min":62,"x_max":1238,"o":"m 193 322 q 286 146 193 215 q 383 115 337 115 l 398 115 q 524 168 463 115 q 588 321 588 233 l 588 322 q 496 497 588 431 q 395 528 445 528 l 385 528 q 237 453 303 528 q 193 322 193 391 m 762 406 l 1090 406 l 1090 406 q 1038 485 1079 441 q 925 529 986 529 q 772 431 832 529 l 762 406 m 720 69 l 720 1 l 718 0 l 590 0 l 588 1 l 588 67 q 393 -16 512 -16 l 392 -16 q 140 104 243 -16 q 62 321 62 201 l 62 322 q 178 580 62 471 q 394 660 273 660 q 588 574 507 660 l 588 648 l 590 650 l 718 650 l 720 648 l 720 575 q 736 591 728 583 q 916 660 826 660 l 936 660 q 1126 581 1035 660 q 1188 505 1171 536 q 1238 321 1238 417 l 1238 301 q 1235 282 1238 282 l 749 282 q 801 174 765 210 q 926 115 856 115 q 1074 203 1014 115 q 1087 227 1085 226 q 1205 172 1204 174 q 1162 101 1196 149 q 927 -16 1063 -16 l 924 -16 q 720 69 808 -16 z "},"ç":{"ha":707,"x_min":61,"x_max":663,"o":"m 425 -14 l 419 -43 q 450 -50 439 -47 q 511 -106 492 -68 q 526 -166 526 -137 l 526 -171 q 495 -254 526 -215 q 473 -275 480 -270 q 380 -308 429 -308 l 376 -308 q 275 -269 323 -308 q 254 -247 256 -251 l 251 -243 l 251 -242 l 337 -176 q 378 -199 355 -199 q 407 -189 393 -199 q 418 -169 418 -179 q 413 -154 418 -161 q 397 -150 408 -150 l 394 -150 q 349 -161 376 -150 l 279 -184 l 279 -184 l 315 -8 q 210 39 261 5 q 180 61 193 50 q 142 99 155 84 q 104 155 115 132 q 79 212 91 176 q 61 316 61 267 l 61 327 q 98 479 61 403 q 125 523 110 500 q 159 564 136 538 q 206 603 186 589 q 389 660 291 660 l 391 660 q 581 597 492 660 q 617 566 597 585 q 650 527 642 540 q 661 512 661 513 l 552 440 l 551 440 q 525 472 544 452 q 389 529 465 529 q 258 476 317 529 q 231 445 236 454 q 192 321 192 389 q 239 188 192 248 q 270 157 254 170 q 390 115 324 115 q 501 151 450 115 q 533 179 513 159 q 553 205 545 193 l 553 205 l 663 134 q 631 93 651 115 q 599 61 608 68 q 560 33 576 43 q 425 -14 495 -7 z "},"è":{"ha":723,"x_min":45,"x_max":668,"o":"m 280 1036 l 540 878 l 540 876 l 472 766 l 471 766 l 212 925 l 280 1036 m 192 406 l 521 406 l 521 406 q 468 485 509 441 q 355 529 416 529 q 203 431 262 529 l 192 406 m 347 660 l 366 660 q 557 581 465 660 q 618 505 602 536 q 668 321 668 417 l 668 301 q 665 282 668 282 l 180 282 q 231 174 195 210 q 356 115 286 115 q 504 203 444 115 q 517 227 515 226 q 635 172 634 174 q 593 101 626 149 q 357 -16 493 -16 l 355 -16 q 115 108 215 -16 q 45 320 45 205 l 45 323 q 167 591 45 481 q 347 660 256 660 z "},"é":{"ha":723,"x_min":45,"x_max":668,"o":"m 540 925 l 280 766 l 279 766 l 212 876 l 212 878 l 471 1036 l 540 925 m 192 406 l 521 406 l 521 406 q 468 485 509 441 q 355 529 416 529 q 203 431 262 529 l 192 406 m 347 660 l 366 660 q 557 581 465 660 q 618 505 602 536 q 668 321 668 417 l 668 301 q 665 282 668 282 l 180 282 q 231 174 195 210 q 356 115 286 115 q 504 203 444 115 q 517 227 515 226 q 635 172 634 174 q 593 101 626 149 q 357 -16 493 -16 l 355 -16 q 115 108 215 -16 q 45 320 45 205 l 45 323 q 167 591 45 481 q 347 660 256 660 z "},"ê":{"ha":723,"x_min":45,"x_max":668,"o":"m 337 1023 l 414 1023 q 565 853 422 1014 l 467 766 l 376 869 l 284 766 l 283 766 l 186 852 l 186 853 l 337 1023 m 192 406 l 521 406 l 521 406 q 468 485 509 441 q 355 529 416 529 q 203 431 262 529 l 192 406 m 347 660 l 366 660 q 557 581 465 660 q 618 505 602 536 q 668 321 668 417 l 668 301 q 665 282 668 282 l 180 282 q 231 174 195 210 q 356 115 286 115 q 504 203 444 115 q 517 227 515 226 q 635 172 634 174 q 593 101 626 149 q 357 -16 493 -16 l 355 -16 q 115 108 215 -16 q 45 320 45 205 l 45 323 q 167 591 45 481 q 347 660 256 660 z "},"ë":{"ha":723,"x_min":45,"x_max":668,"o":"m 247 957 q 315 922 288 957 q 332 874 332 898 l 332 869 q 305 809 332 836 q 267 788 286 792 q 251 786 256 786 l 241 786 q 196 802 220 786 q 164 846 173 819 q 161 869 161 859 l 161 874 q 186 933 161 906 q 247 957 212 957 m 505 957 q 573 922 545 957 q 589 874 589 898 l 589 869 q 563 809 589 836 q 524 788 543 792 q 509 786 514 786 l 499 786 q 454 802 477 786 q 422 846 431 819 q 418 869 418 859 l 418 874 q 444 933 418 906 q 505 957 470 957 m 192 406 l 521 406 l 521 406 q 468 485 509 441 q 355 529 416 529 q 203 431 262 529 l 192 406 m 347 660 l 366 660 q 557 581 465 660 q 618 505 602 536 q 668 321 668 417 l 668 301 q 665 282 668 282 l 180 282 q 231 174 195 210 q 356 115 286 115 q 504 203 444 115 q 517 227 515 226 q 635 172 634 174 q 593 101 626 149 q 357 -16 493 -16 l 355 -16 q 115 108 215 -16 q 45 320 45 205 l 45 323 q 167 591 45 481 q 347 660 256 660 z "},"ì":{"ha":351,"x_min":12,"x_max":340,"o":"m 241 650 l 241 1 l 241 0 l 111 0 l 110 1 l 110 650 l 241 650 m 80 1036 l 340 878 l 340 876 l 272 766 l 271 766 l 12 925 l 80 1036 z "},"í":{"ha":349,"x_min":12,"x_max":340,"o":"m 241 650 l 241 1 l 241 0 l 111 0 l 110 1 l 110 650 l 241 650 m 340 925 l 80 766 l 79 766 l 12 876 l 12 878 l 271 1036 l 340 925 z "},"î":{"ha":351,"x_min":-14,"x_max":365,"o":"m 241 650 l 241 1 l 241 0 l 111 0 l 110 1 l 110 650 l 241 650 m 137 1023 l 214 1023 q 365 853 222 1014 l 267 766 l 176 869 l 84 766 l 83 766 l -14 852 l -14 853 l 137 1023 z "},"ï":{"ha":351,"x_min":-25,"x_max":376,"o":"m 241 650 l 241 1 l 241 0 l 111 0 l 110 1 l 110 650 l 241 650 m 61 957 q 130 922 102 957 q 146 874 146 898 l 146 869 q 119 809 146 836 q 81 788 100 792 q 65 786 71 786 l 56 786 q 10 802 34 786 q -22 846 -13 819 q -25 869 -25 859 l -25 874 q 1 933 -25 906 q 61 957 26 957 m 292 957 q 360 922 332 957 q 376 874 376 898 l 376 869 q 350 809 376 836 q 311 788 330 792 q 296 786 301 786 l 286 786 q 241 802 264 786 q 209 846 218 819 q 205 869 205 859 l 205 874 q 231 933 205 906 q 292 957 257 957 z "},"ð":{"ha":772,"x_min":0,"x_max":0,"o":""},"ñ":{"ha":783,"x_min":104,"x_max":682,"o":"m 610 833 q 566 799 588 812 q 498 779 531 779 q 393 818 462 779 q 288 857 323 857 q 225 834 258 857 q 176 785 203 819 l 176 908 q 222 949 199 936 q 288 970 256 970 q 396 930 327 970 q 498 890 465 890 q 561 913 528 890 q 610 964 583 928 l 610 833 m 399 650 l 405 650 q 656 517 580 650 q 682 395 682 465 l 682 2 l 681 0 l 553 0 l 552 2 l 552 396 q 482 506 552 479 q 408 519 453 519 l 397 519 q 279 493 314 519 q 235 393 235 466 l 235 2 l 233 0 l 106 0 l 104 2 l 104 644 l 106 646 l 233 646 l 235 644 l 235 608 l 235 608 q 326 643 270 627 q 399 650 355 650 z "},"ò":{"ha":780,"x_min":61,"x_max":718,"o":"m 294 1036 l 554 878 l 554 876 l 486 766 l 486 766 l 226 925 l 294 1036 m 192 321 q 240 186 192 247 q 273 155 261 163 q 389 115 326 115 q 526 173 467 115 q 559 216 550 198 q 587 320 587 267 l 587 322 q 534 463 587 400 q 503 490 511 487 q 481 505 491 500 q 389 529 437 529 q 258 475 317 529 q 231 444 237 454 q 192 321 192 389 m 389 660 q 591 589 500 660 q 628 555 604 579 q 694 448 675 503 q 718 321 718 387 q 677 157 718 235 q 638 100 663 131 q 595 58 612 70 q 561 33 577 43 q 393 -16 480 -16 l 387 -16 q 210 38 294 -16 q 180 61 193 50 q 142 99 154 83 q 116 134 128 115 q 93 176 102 156 q 61 317 61 247 l 61 327 q 99 479 61 403 q 125 522 110 500 q 159 564 136 538 q 207 603 193 594 q 389 660 290 660 z "},"ó":{"ha":780,"x_min":61,"x_max":718,"o":"m 554 925 l 294 766 l 294 766 l 226 876 l 226 878 l 486 1036 l 554 925 m 192 321 q 240 186 192 247 q 273 155 261 163 q 389 115 326 115 q 526 173 467 115 q 559 216 550 198 q 587 320 587 267 l 587 322 q 534 463 587 400 q 503 490 511 487 q 481 505 491 500 q 389 529 437 529 q 258 475 317 529 q 231 444 237 454 q 192 321 192 389 m 389 660 q 591 589 500 660 q 628 555 604 579 q 694 448 675 503 q 718 321 718 387 q 677 157 718 235 q 638 100 663 131 q 595 58 612 70 q 561 33 577 43 q 393 -16 480 -16 l 387 -16 q 210 38 294 -16 q 180 61 193 50 q 142 99 154 83 q 116 134 128 115 q 93 176 102 156 q 61 317 61 247 l 61 327 q 99 479 61 403 q 125 522 110 500 q 159 564 136 538 q 207 603 193 594 q 389 660 290 660 z "},"ô":{"ha":780,"x_min":61,"x_max":718,"o":"m 351 1023 l 428 1023 q 579 853 437 1014 l 481 766 l 390 869 l 298 766 l 298 766 l 200 852 l 200 853 l 351 1023 m 192 321 q 240 186 192 247 q 273 155 261 163 q 389 115 326 115 q 526 173 467 115 q 559 216 550 198 q 587 320 587 267 l 587 322 q 534 463 587 400 q 503 490 511 487 q 481 505 491 500 q 389 529 437 529 q 258 475 317 529 q 231 444 237 454 q 192 321 192 389 m 389 660 q 591 589 500 660 q 628 555 604 579 q 694 448 675 503 q 718 321 718 387 q 677 157 718 235 q 638 100 663 131 q 595 58 612 70 q 561 33 577 43 q 393 -16 480 -16 l 387 -16 q 210 38 294 -16 q 180 61 193 50 q 142 99 154 83 q 116 134 128 115 q 93 176 102 156 q 61 317 61 247 l 61 327 q 99 479 61 403 q 125 522 110 500 q 159 564 136 538 q 207 603 193 594 q 389 660 290 660 z "},"õ":{"ha":780,"x_min":61,"x_max":718,"o":"m 607 833 q 562 799 585 812 q 494 779 528 779 q 389 818 458 779 q 285 857 320 857 q 222 834 255 857 q 173 785 200 819 l 173 908 q 218 949 196 936 q 285 970 253 970 q 393 930 323 970 q 494 890 462 890 q 557 913 524 890 q 607 964 580 928 l 607 833 m 192 321 q 240 186 192 247 q 273 155 261 163 q 389 115 326 115 q 526 173 467 115 q 559 216 550 198 q 587 320 587 267 l 587 322 q 534 463 587 400 q 503 490 511 487 q 481 505 491 500 q 389 529 437 529 q 258 475 317 529 q 231 444 237 454 q 192 321 192 389 m 389 660 q 591 589 500 660 q 628 555 604 579 q 694 448 675 503 q 718 321 718 387 q 677 157 718 235 q 638 100 663 131 q 595 58 612 70 q 561 33 577 43 q 393 -16 480 -16 l 387 -16 q 210 38 294 -16 q 180 61 193 50 q 142 99 154 83 q 116 134 128 115 q 93 176 102 156 q 61 317 61 247 l 61 327 q 99 479 61 403 q 125 522 110 500 q 159 564 136 538 q 207 603 193 594 q 389 660 290 660 z "},"ö":{"ha":780,"x_min":61,"x_max":718,"o":"m 262 957 q 330 922 302 957 q 347 874 347 898 l 347 869 q 320 809 347 836 q 281 788 300 792 q 266 786 271 786 l 256 786 q 211 802 235 786 q 179 846 188 819 q 176 869 176 859 l 176 874 q 201 933 176 906 q 262 957 227 957 m 519 957 q 588 922 560 957 q 604 874 604 898 l 604 869 q 578 809 604 836 q 539 788 558 792 q 524 786 529 786 l 514 786 q 469 802 492 786 q 437 846 446 819 q 433 869 433 859 l 433 874 q 459 933 433 906 q 519 957 485 957 m 192 321 q 240 186 192 247 q 273 155 261 163 q 389 115 326 115 q 526 173 467 115 q 559 216 550 198 q 587 320 587 267 l 587 322 q 534 463 587 400 q 503 490 511 487 q 481 505 491 500 q 389 529 437 529 q 258 475 317 529 q 231 444 237 454 q 192 321 192 389 m 389 660 q 591 589 500 660 q 628 555 604 579 q 694 448 675 503 q 718 321 718 387 q 677 157 718 235 q 638 100 663 131 q 595 58 612 70 q 561 33 577 43 q 393 -16 480 -16 l 387 -16 q 210 38 294 -16 q 180 61 193 50 q 142 99 154 83 q 116 134 128 115 q 93 176 102 156 q 61 317 61 247 l 61 327 q 99 479 61 403 q 125 522 110 500 q 159 564 136 538 q 207 603 193 594 q 389 660 290 660 z "},"÷":{"ha":612,"x_min":65,"x_max":547,"o":"m 304 637 l 309 637 q 368 612 340 637 q 392 555 392 586 l 392 550 q 364 488 392 516 q 309 467 338 467 l 304 467 q 242 496 270 467 q 221 552 221 522 q 245 612 221 585 q 304 637 272 637 m 304 226 l 309 226 q 368 201 340 226 q 392 143 392 174 l 392 138 q 364 77 392 104 q 309 55 338 55 l 304 55 q 242 84 270 55 q 221 140 221 110 q 245 200 221 174 q 304 226 272 226 m 65 412 l 546 412 l 547 411 l 547 281 l 546 281 l 65 281 l 65 412 z "},"ø":{"ha":785,"x_min":36,"x_max":734,"o":"m 476 508 q 389 529 434 529 q 258 475 317 529 q 231 444 237 454 q 192 321 192 389 q 208 240 192 278 l 476 508 m 567 413 l 294 140 q 389 115 339 115 q 526 173 467 115 q 559 216 550 198 q 587 320 587 267 l 587 322 q 567 413 587 370 m 571 603 l 641 673 l 642 673 l 734 581 l 734 580 l 663 509 q 694 448 683 479 q 718 321 718 387 q 677 157 718 235 q 638 100 663 131 q 595 58 612 70 q 561 33 577 43 q 393 -16 480 -16 l 387 -16 q 210 38 294 -16 q 199 45 204 42 l 129 -25 l 128 -25 l 36 67 l 36 68 l 111 142 q 93 176 100 160 q 61 317 61 247 l 61 327 q 99 479 61 403 q 125 522 110 500 q 159 564 136 538 q 207 603 193 594 q 389 660 290 660 q 571 603 488 660 z "},"ù":{"ha":781,"x_min":100,"x_max":679,"o":"m 294 1036 l 553 878 l 553 876 l 486 766 l 485 766 l 225 925 l 294 1036 m 384 0 l 378 0 q 127 132 203 0 q 100 255 100 184 l 100 648 l 102 650 l 229 650 l 231 648 l 231 254 q 300 144 231 170 q 375 131 330 131 l 386 131 q 503 157 469 131 q 549 257 549 184 l 549 648 l 550 650 l 677 650 l 679 648 l 679 5 l 677 3 l 550 3 l 549 5 l 549 49 l 547 49 q 457 7 513 23 q 384 0 427 0 z "},"ú":{"ha":782,"x_min":100,"x_max":679,"o":"m 553 925 l 294 766 l 293 766 l 225 876 l 225 878 l 485 1036 l 553 925 m 384 0 l 378 0 q 127 132 203 0 q 100 255 100 184 l 100 648 l 102 650 l 229 650 l 231 648 l 231 254 q 300 144 231 170 q 375 131 330 131 l 386 131 q 503 157 469 131 q 549 257 549 184 l 549 648 l 550 650 l 677 650 l 679 648 l 679 5 l 677 3 l 550 3 l 549 5 l 549 49 l 547 49 q 457 7 513 23 q 384 0 427 0 z "},"û":{"ha":781,"x_min":100,"x_max":679,"o":"m 351 1023 l 428 1023 q 579 853 437 1014 l 481 766 l 390 869 l 298 766 l 298 766 l 200 852 l 200 853 l 351 1023 m 384 0 l 378 0 q 127 132 203 0 q 100 255 100 184 l 100 648 l 102 650 l 229 650 l 231 648 l 231 254 q 300 144 231 170 q 375 131 330 131 l 386 131 q 503 157 469 131 q 549 257 549 184 l 549 648 l 550 650 l 677 650 l 679 648 l 679 5 l 677 3 l 550 3 l 549 5 l 549 49 l 547 49 q 457 7 513 23 q 384 0 427 0 z "},"ü":{"ha":782,"x_min":100,"x_max":679,"o":"m 262 957 q 330 922 302 957 q 347 874 347 898 l 347 869 q 320 809 347 836 q 281 788 300 792 q 266 786 271 786 l 256 786 q 211 802 235 786 q 179 846 188 819 q 176 869 176 859 l 176 874 q 201 933 176 906 q 262 957 227 957 m 519 957 q 588 922 560 957 q 604 874 604 898 l 604 869 q 578 809 604 836 q 539 788 558 792 q 524 786 529 786 l 514 786 q 469 802 492 786 q 437 846 446 819 q 433 869 433 859 l 433 874 q 459 933 433 906 q 519 957 485 957 m 384 0 l 378 0 q 127 132 203 0 q 100 255 100 184 l 100 648 l 102 650 l 229 650 l 231 648 l 231 254 q 300 144 231 170 q 375 131 330 131 l 386 131 q 503 157 469 131 q 549 257 549 184 l 549 648 l 550 650 l 677 650 l 679 648 l 679 5 l 677 3 l 550 3 l 549 5 l 549 49 l 547 49 q 457 7 513 23 q 384 0 427 0 z "},"ý":{"ha":759,"x_min":23,"x_max":735,"o":"m 543 925 l 283 766 l 283 766 l 215 876 l 215 878 l 475 1036 l 543 925 m 173 650 q 179 636 174 649 l 275 408 l 379 164 q 408 232 381 168 l 498 437 l 592 650 l 735 650 l 590 318 l 469 41 l 343 -246 l 323 -292 l 180 -292 l 179 -292 l 308 0 l 175 304 l 39 612 l 23 650 l 173 650 z "},"þ":{"ha":804,"x_min":92,"x_max":748,"o":"m 222 576 q 253 605 247 602 q 288 629 273 621 q 330 646 309 640 q 385 658 346 651 q 414 659 397 659 q 590 611 512 659 q 641 572 611 599 q 673 537 666 547 q 702 496 689 516 q 748 320 748 414 q 679 113 748 208 q 644 73 670 100 l 631 62 q 419 -17 536 -17 q 264 32 334 -17 q 229 62 252 41 l 222 69 l 222 -271 l 92 -271 l 92 -271 l 92 992 l 92 993 l 222 993 l 222 992 l 222 576 m 222 307 q 233 252 222 288 q 250 212 241 230 q 279 176 260 197 q 309 150 300 155 q 337 132 325 139 q 414 114 380 114 l 422 114 q 536 155 483 114 q 564 180 546 161 q 608 258 596 218 q 617 321 617 290 q 566 460 617 399 q 540 486 545 483 q 420 528 486 528 l 414 528 q 336 509 378 528 q 289 477 315 500 q 259 442 264 452 q 243 414 249 427 q 229 380 237 401 q 222 334 222 349 l 222 307 z "},"ÿ":{"ha":759,"x_min":23,"x_max":735,"o":"m 251 957 q 319 922 292 957 q 336 874 336 898 l 336 869 q 309 809 336 836 q 271 788 290 792 q 255 786 260 786 l 245 786 q 200 802 224 786 q 168 846 177 819 q 165 869 165 859 l 165 874 q 191 933 165 906 q 251 957 216 957 m 509 957 q 577 922 549 957 q 593 874 593 898 l 593 869 q 567 809 593 836 q 528 788 547 792 q 513 786 518 786 l 503 786 q 458 802 481 786 q 426 846 435 819 q 422 869 422 859 l 422 874 q 448 933 422 906 q 509 957 474 957 m 173 650 q 179 636 174 649 l 275 408 l 379 164 q 408 232 381 168 l 498 437 l 592 650 l 735 650 l 590 318 l 469 41 l 343 -246 l 323 -292 l 180 -292 l 179 -292 l 308 0 l 175 304 l 39 612 l 23 650 l 173 650 z "}}}
